<svg width="253" height="40" viewBox="0 0 253 40" fill="none" xmlns="http://www.w3.org/2000/svg">
<g clip-path="url(#clip0_127_1935)">
<path d="M90.0001 9.1721V12.9172H78.7638V24.3164H75.0455V12.9172H70.8801V12.8681L72.0464 9.1721H75.0455V6.2292L78.7638 5.05859V9.1721H90.0001Z" fill="white"/>
<path d="M10.1513 15.5406C11.3415 15.1105 12.3707 14.3204 13.0981 13.2786C13.8256 12.2367 14.2156 10.994 14.215 9.72032V9.33557C14.2156 8.51734 14.0559 7.70702 13.7453 6.95096C13.4347 6.19491 12.9791 5.50795 12.4047 4.92937C11.8302 4.35079 11.1482 3.89194 10.3975 3.57906C9.64688 3.26618 8.84236 3.10542 8.02998 3.10596H0V24.3161H3.73866V15.9172H6.04281L10.9193 24.3161H15.2147L10.1513 15.5406ZM3.73866 6.34765H7.63986C8.38794 6.3759 9.09603 6.69509 9.61536 7.23814C10.1347 7.7812 10.4248 8.50585 10.4248 9.25985C10.4248 10.0139 10.1347 10.7385 9.61536 11.2816C9.09603 11.8246 8.38794 12.1438 7.63986 12.1721H3.73866V6.34765Z" fill="white"/>
<path d="M31.7907 18.0211C31.8563 17.5945 31.8889 17.1635 31.8883 16.7318C31.8901 16.2237 31.8439 15.7166 31.7501 15.2174C31.0836 11.5336 28.0318 8.74219 24.3662 8.74219C20.209 8.74219 16.8442 12.3195 16.8442 16.7318C16.8442 21.1441 20.209 24.7214 24.3662 24.7214C25.8202 24.7029 27.2374 24.2594 28.4458 23.4449C29.6542 22.6303 30.6016 21.4798 31.173 20.1331L27.3978 19.2572C27.0776 19.7782 26.6334 20.2105 26.1055 20.5149C25.5775 20.8194 24.9826 20.9864 24.3744 21.0009C22.7123 21.0009 21.3022 19.7729 20.7739 18.0211H31.7907ZM20.7129 15.2174C21.1884 13.3714 22.6473 12.0289 24.3703 12.0289C26.0933 12.0289 27.5563 13.3714 28.0277 15.2174H20.7129Z" fill="white"/>
<path d="M42.0436 13.2649L44.9776 11.5172C44.5337 10.839 43.9622 10.255 43.2952 9.79813C42.6909 9.39204 42.0213 9.09432 41.3162 8.91813C40.3659 8.65189 39.3717 8.58364 38.3944 8.71757C37.7918 8.79955 37.2036 8.96626 36.6469 9.21283C36.2111 9.41528 35.8017 9.67097 35.4278 9.97414C34.9905 10.3123 34.6185 10.7285 34.3306 11.2021C34.1445 11.5195 33.9985 11.8592 33.8958 12.213C33.7341 12.7705 33.6789 13.3539 33.7332 13.9321C33.776 14.4864 33.9427 15.0237 34.2209 15.5038C34.3612 15.7292 34.5246 15.9391 34.7085 16.1301C35.2121 16.6612 35.8033 17.1002 36.4559 17.4276C37.0784 17.7512 37.7394 17.9933 38.4228 18.1479C38.8292 18.2503 39.2559 18.3567 39.6744 18.4549C39.9803 18.5217 40.2795 18.6162 40.5685 18.7373C40.8015 18.8168 41.0159 18.9436 41.1983 19.1098C41.3816 19.298 41.4998 19.5405 41.5356 19.8015C41.5686 20.0665 41.5113 20.3349 41.3731 20.5628C41.2834 20.7111 41.1645 20.8393 41.0236 20.9394C40.8009 21.1062 40.5463 21.2246 40.2759 21.2873C39.8037 21.4256 39.3077 21.4605 38.8211 21.3896C38.3044 21.3121 37.8115 21.1191 37.3784 20.8248C37.0526 20.6023 36.7667 20.3254 36.5332 20.0062L33.4163 21.3487C33.4798 21.4886 33.5503 21.6252 33.6276 21.758C33.8387 22.1153 34.0926 22.4452 34.3834 22.7403C34.8989 23.2393 35.5008 23.6388 36.1593 23.9191C36.6646 24.1503 37.1933 24.326 37.736 24.4431C38.3801 24.5952 39.0421 24.6559 39.7029 24.6231C40.475 24.5928 41.2346 24.4165 41.942 24.1033C42.7229 23.7518 43.4169 23.2304 43.9739 22.5766C44.1925 22.3281 44.3795 22.0531 44.5306 21.758C44.7952 21.2079 44.934 20.6051 44.937 19.9939C44.9769 19.5401 44.9223 19.083 44.7767 18.6516C44.6312 18.2203 44.3979 17.8243 44.0917 17.489C43.6198 16.9433 43.0523 16.4896 42.4175 16.1505C41.8388 15.8236 41.2323 15.5497 40.605 15.3319C40.605 15.3319 39.8898 15.0577 39.2437 14.8817L38.9633 14.808L38.4919 14.6893C38.3375 14.6443 38.2562 14.6157 38.2156 14.5993C38.1379 14.5741 38.0619 14.5441 37.988 14.5092C37.864 14.4578 37.7443 14.3962 37.6304 14.325C37.5207 14.2591 37.4242 14.173 37.3459 14.0713C37.2502 13.9331 37.1915 13.7724 37.1752 13.6047C37.1716 13.5392 37.1716 13.4736 37.1752 13.4082C37.1766 13.3314 37.1833 13.2548 37.1956 13.179C37.2089 13.103 37.2265 13.0278 37.2484 12.9539C37.2706 12.8878 37.2977 12.8234 37.3297 12.7615C37.3578 12.7105 37.389 12.6613 37.4231 12.6142C37.4504 12.5766 37.4803 12.541 37.5125 12.5077C37.5125 12.5077 37.5369 12.4791 37.541 12.4791C37.5746 12.4407 37.6113 12.4051 37.6507 12.3727C37.7115 12.3218 37.7768 12.2766 37.8458 12.2376C37.9189 12.1926 37.9799 12.1639 38.0124 12.1475L38.1465 12.078L38.309 12.0166L38.4066 11.9879L38.565 11.9511C38.7317 11.9142 38.9105 11.8938 38.9186 11.8897C39.1075 11.8695 39.2975 11.8613 39.4875 11.8651C39.8447 11.8693 40.1983 11.9372 40.5319 12.0657C40.73 12.1446 40.9205 12.2419 41.1008 12.3563C41.2065 12.4218 41.2796 12.475 41.2959 12.4873C41.4785 12.6137 41.6438 12.7637 41.7876 12.9334C41.8476 13.0007 41.9033 13.0718 41.9542 13.1462L42.0436 13.2649Z" fill="white"/>
<path d="M61.1189 9.15985V24.3041H57.4087V22.8961C56.9236 23.4655 56.322 23.9223 55.6451 24.2353C54.9682 24.5483 54.232 24.71 53.4872 24.7093H53.3409C52.5523 24.7104 51.7713 24.555 51.0424 24.2519C50.3135 23.9488 49.651 23.5041 49.0929 22.943C48.5347 22.382 48.0918 21.7156 47.7894 20.9821C47.487 20.2486 47.3311 19.4622 47.3306 18.668V9.21306C47.3306 9.19787 47.3366 9.18329 47.3472 9.17254C47.3579 9.1618 47.3724 9.15576 47.3875 9.15576H51.0448V17.7266C51.0459 18.5661 51.3778 19.3708 51.9675 19.9641C52.5573 20.5573 53.3567 20.8905 54.1902 20.8905H54.3934C55.1942 20.8905 55.9621 20.5701 56.5284 19.9998C57.0946 19.4295 57.4127 18.6559 57.4127 17.8494V9.15985H61.1189Z" fill="white"/>
<path d="M68.3198 1.51807H64.6218V24.3163H68.3198V1.51807Z" fill="white"/>
<path d="M86.2574 24.3165C88.3244 24.3165 90.0001 22.6947 90.0001 20.6941C90.0001 18.6936 88.3244 17.0718 86.2574 17.0718C84.1903 17.0718 82.5146 18.6936 82.5146 20.6941C82.5146 22.6947 84.1903 24.3165 86.2574 24.3165Z" fill="#F8B806"/>
<path d="M1.78404 34.0702C1.78404 34.2299 1.78404 34.455 1.80842 34.7169C1.80842 34.7456 1.84499 35.1262 1.88969 35.3677C1.98059 35.8407 2.19844 36.2795 2.51958 36.6366C2.97728 37.0788 3.58805 37.324 4.22229 37.3201C4.73805 37.2794 5.23057 37.087 5.63874 36.7668C6.04691 36.4467 6.35275 36.0128 6.51831 35.5192C6.51593 35.9898 6.41011 36.4541 6.20846 36.8787C6.00681 37.3033 5.71433 37.6777 5.35202 37.975C4.95363 38.2627 4.48676 38.4392 3.99878 38.4866C3.21811 38.5582 2.43956 38.3285 1.82061 37.844C1.43489 37.5185 1.13245 37.1044 0.938777 36.6366C0.808592 36.3507 0.714394 36.0496 0.658377 35.7402C0.53578 35.1919 0.519222 34.6249 0.60961 34.0702C0.716255 33.3717 1.01147 32.7161 1.463 32.1751C1.7231 31.8557 2.04355 31.5913 2.40579 31.3975C3.06253 31.068 3.81324 30.9811 4.52707 31.1519C4.81424 31.1991 5.08998 31.3005 5.33982 31.4507C5.73545 31.7143 6.04615 32.0884 6.23385 32.5271C6.36077 32.8026 6.44833 33.0947 6.49393 33.3949C6.53013 33.6222 6.5451 33.8524 6.53863 34.0825L1.78404 34.0702ZM4.16134 33.62C4.31965 33.6198 4.47708 33.5964 4.62866 33.5504C4.7983 33.5173 4.9557 33.438 5.08381 33.3212C5.16955 33.2248 5.23356 33.1109 5.27144 32.9873C5.30932 32.8636 5.32017 32.7332 5.30325 32.6049C5.27324 32.348 5.15372 32.1101 4.96596 31.9337C4.73341 31.7357 4.45274 31.6037 4.15278 31.5512C3.85282 31.4987 3.5444 31.5276 3.25918 31.6349C2.77207 31.8296 2.37587 32.2024 2.14977 32.6786C1.98956 32.967 1.88607 33.2839 1.84499 33.6118L4.16134 33.62Z" fill="#F8B806"/>
<path d="M32.2621 34.07C32.2621 34.2296 32.2621 34.4547 32.2864 34.7167C32.2864 34.7453 32.323 35.126 32.3677 35.3675C32.46 35.8375 32.6778 36.2734 32.9976 36.6281C33.4553 37.0703 34.0661 37.3155 34.7003 37.3117C35.2161 37.2709 35.7086 37.0785 36.1168 36.7584C36.5249 36.4382 36.8308 36.0044 36.9963 35.5107C36.994 35.9814 36.8881 36.4457 36.6865 36.8703C36.4848 37.2949 36.1924 37.6693 35.83 37.9665C35.4317 38.2543 34.9648 38.4308 34.4768 38.4782C33.6961 38.5498 32.9176 38.3201 32.2986 37.8356C31.916 37.517 31.6138 37.1116 31.4168 36.6527C31.2866 36.3668 31.1924 36.0657 31.1364 35.7563C31.0138 35.208 30.9973 34.641 31.0876 34.0863C31.1943 33.3878 31.4895 32.7322 31.941 32.1913C32.2011 31.8718 32.5216 31.6074 32.8838 31.4136C33.5406 31.0841 34.2913 30.9972 35.0051 31.168C35.2923 31.2152 35.568 31.3166 35.8179 31.4668C36.2135 31.7304 36.5242 32.1045 36.7119 32.5433C36.8388 32.8187 36.9264 33.1108 36.972 33.411C37.0082 33.6383 37.0231 33.8685 37.0167 34.0986L32.2621 34.07ZM34.6394 33.6197C34.7977 33.6196 34.9551 33.5961 35.1067 33.5502C35.2763 33.517 35.4337 33.4377 35.5618 33.3209C35.6476 33.2246 35.7116 33.1107 35.7495 32.987C35.7873 32.8634 35.7982 32.7329 35.7813 32.6047C35.7513 32.3477 35.6317 32.1099 35.444 31.9334C35.2114 31.7355 34.9308 31.6035 34.6308 31.551C34.3308 31.4985 34.0224 31.5273 33.7372 31.6346C33.2501 31.8294 32.8539 32.2021 32.6278 32.6783C32.4676 32.9668 32.3641 33.2836 32.323 33.6115L34.6394 33.6197Z" fill="#F8B806"/>
<path d="M8.13161 35.4085C8.22042 35.6876 8.32628 35.961 8.44858 36.2271C8.81838 37.017 9.05408 37.5327 9.59456 37.8233C9.98962 38.0307 10.4461 38.0859 10.8787 37.9789C11.0906 37.9204 11.2838 37.8075 11.4395 37.6514C11.5348 37.5513 11.6094 37.433 11.6589 37.3035C11.7147 37.1589 11.7396 37.0041 11.7321 36.8492C11.7352 36.6282 11.6791 36.4104 11.5695 36.2189C11.4746 36.0741 11.3516 35.9502 11.2079 35.8546C10.9975 35.6999 10.7697 35.5707 10.5292 35.4698C10.1228 35.2734 9.87902 35.1711 9.69615 35.0605C9.39186 34.9389 9.10051 34.7867 8.82651 34.6062C8.5843 34.4274 8.38444 34.1968 8.24133 33.9309C8.12003 33.6716 8.05713 33.3886 8.05713 33.102C8.05713 32.8154 8.12003 32.5324 8.24133 32.2732C8.64771 31.3727 9.69209 31.0453 10.4317 31.0739C10.926 31.0921 11.4051 31.2511 11.8134 31.5323L12.492 31.0698V33.7876L11.5492 31.9703C11.2413 31.7298 10.8692 31.5873 10.4805 31.561C10.185 31.5316 9.88732 31.5885 9.623 31.7247C9.46145 31.8 9.3216 31.9155 9.21663 32.0603C9.15049 32.1509 9.09969 32.2519 9.06627 32.3591C9.03092 32.4925 9.02127 32.6314 9.03783 32.7684C9.04795 32.8975 9.08834 33.0224 9.15567 33.1327C9.2106 33.2125 9.27782 33.283 9.3548 33.3415C9.47151 33.4404 9.59818 33.5269 9.73273 33.5993C10.1391 33.8122 10.3748 33.9227 10.8096 34.1191C11.0813 34.2402 11.3459 34.3768 11.6021 34.5285C11.9917 34.7122 12.3276 34.9942 12.5774 35.3471C12.775 35.6729 12.8725 36.0502 12.8578 36.4317C12.8537 36.7928 12.7571 37.1467 12.5774 37.4591C11.9272 38.5519 10.4073 38.5233 10.2651 38.5192C10.0219 38.5049 9.7808 38.4651 9.5458 38.4005C9.31867 38.3496 9.10342 38.2551 8.91185 38.1221C8.84916 38.0786 8.79066 38.0293 8.73711 37.9748L8.11129 38.5192L8.13161 35.4085Z" fill="#F8B806"/>
<path d="M23.0781 33.2312C23.0781 32.916 23.0781 32.7605 23.0497 32.6499C23.0424 32.311 22.9072 31.9876 22.6718 31.7454C22.4871 31.6081 22.2632 31.5349 22.0337 31.5366C21.7112 31.494 21.3845 31.5759 21.1194 31.7659C20.9789 31.8719 20.8683 32.013 20.7984 32.1752C20.6033 32.6131 20.8471 32.8792 20.6317 33.2557C20.5585 33.3932 20.441 33.5014 20.2985 33.5627C20.192 33.6023 20.0769 33.6121 19.9653 33.5912C19.8537 33.5704 19.7498 33.5195 19.6646 33.444C19.5671 33.3348 19.5005 33.2012 19.4719 33.0571C19.4433 32.9131 19.4537 32.764 19.502 32.6254C19.555 32.4287 19.6604 32.2504 19.8068 32.1097C20.3018 31.6001 20.9401 31.2558 21.6355 31.1232C22.0419 31.07 23.0741 30.9268 23.769 31.6594C24.1234 32.0553 24.3164 32.5713 24.3094 33.1043L24.3298 37.4552L25.6952 36.9313C25.3038 37.4041 24.8743 37.8435 24.411 38.2451C24.2986 38.3525 24.1569 38.4235 24.0041 38.449C23.8513 38.4745 23.6944 38.4534 23.5536 38.3884C23.3835 38.2714 23.25 38.108 23.1687 37.9174C23.0873 37.7268 23.0616 37.5168 23.0944 37.3119C22.9887 37.3815 22.8221 37.492 22.623 37.6312C22.2994 37.899 21.9462 38.1284 21.5705 38.3147C21.3218 38.4226 21.0527 38.4743 20.7821 38.4662C20.5032 38.4624 20.2302 38.3848 19.9905 38.2411C19.7508 38.0974 19.5529 37.8927 19.4167 37.6476C19.198 37.2379 19.1359 36.7618 19.2419 36.3091C19.2908 36.0473 19.3917 35.7981 19.5386 35.5765C19.7706 35.2568 20.076 34.9985 20.4286 34.8234C20.6926 34.6846 20.9639 34.5602 21.2413 34.4509C21.5745 34.3076 21.729 34.2503 22.0988 34.103C22.3345 34.0088 22.6799 33.8656 23.0944 33.6937C23.0822 33.575 23.0822 33.4194 23.0781 33.2312ZM23.0781 34.1316C22.5823 34.3199 22.176 34.5 21.859 34.6433C21.4974 34.7773 21.1679 34.9865 20.8918 35.2572C20.7218 35.4363 20.5915 35.6497 20.5098 35.8835C20.4575 36.0544 20.4328 36.2326 20.4367 36.4115C20.4196 36.6575 20.4732 36.9033 20.5911 37.1196C20.6839 37.288 20.8257 37.4237 20.9975 37.5084C21.108 37.5512 21.2246 37.576 21.3429 37.5821C21.4779 37.5979 21.6143 37.5979 21.7493 37.5821C22.2379 37.4431 22.6875 37.1908 23.0619 36.8453L23.0781 34.1316Z" fill="#F8B806"/>
<path d="M16.2022 29.5146V31.3156H17.7993V31.8436H16.2022V36.7307C16.174 36.8682 16.1854 37.0111 16.2351 37.1423C16.2847 37.2736 16.3706 37.3878 16.4826 37.4715C16.6272 37.5439 16.7913 37.5669 16.95 37.537C17.0723 37.5201 17.1907 37.4813 17.2995 37.4224C17.4705 37.3298 17.6301 37.2172 17.7749 37.0868L17.9618 36.9312C17.8887 37.0581 17.783 37.2341 17.6408 37.4347C17.5155 37.625 17.3712 37.802 17.21 37.9627C17.0328 38.1405 16.8212 38.2798 16.5883 38.372C16.507 38.4061 16.4226 38.4322 16.3363 38.4498C16.0571 38.5037 15.768 38.4528 15.5236 38.3065C15.3766 38.1971 15.2541 38.0579 15.1638 37.8979C15.0735 37.7378 15.0175 37.5605 14.9994 37.3774C14.9828 37.2759 14.9747 37.1732 14.975 37.0704V31.8354H13.7559L16.2022 29.5146Z" fill="#F8B806"/>
<path d="M28.2513 29.5146V31.3156H29.8484V31.8436H28.2513V36.7307C28.223 36.8682 28.2344 37.0111 28.2841 37.1423C28.3338 37.2736 28.4197 37.3878 28.5317 37.4715C28.6763 37.5439 28.8403 37.5669 28.999 37.537C29.1214 37.5201 29.2397 37.4813 29.3485 37.4224C29.5188 37.3306 29.6772 37.2179 29.8199 37.0868L30.0109 36.9312C29.9378 37.0581 29.8321 37.2341 29.6899 37.4347C29.5646 37.625 29.4202 37.802 29.2591 37.9627C29.0818 38.1405 28.8702 38.2798 28.6374 38.372C28.5559 38.4056 28.4715 38.4316 28.3854 38.4498C28.1062 38.5037 27.817 38.4528 27.5726 38.3065C27.4257 38.1971 27.3031 38.0579 27.2128 37.8979C27.1226 37.7378 27.0665 37.5605 27.0484 37.3774C27.0319 37.2759 27.0237 37.1732 27.024 37.0704V31.8354H25.7927L28.2513 29.5146Z" fill="#F8B806"/>
</g>
<line x1="107.5" y1="-2.18557e-08" x2="107.5" y2="40" stroke="#D9D9D9"/>
<path d="M124.91 16V6.9H129.98V16H128.81V7.81H126.08V16H124.91ZM131.739 18.6V9.5H132.714L132.779 9.89H132.844C133.008 9.72533 133.212 9.59967 133.455 9.513C133.697 9.41767 133.949 9.37 134.209 9.37C134.668 9.37 135.054 9.474 135.366 9.682C135.686 9.88133 135.929 10.228 136.094 10.722C136.267 11.2073 136.354 11.8833 136.354 12.75C136.354 13.6167 136.267 14.297 136.094 14.791C135.929 15.2763 135.686 15.623 135.366 15.831C135.054 16.0303 134.668 16.13 134.209 16.13C133.949 16.13 133.715 16.0997 133.507 16.039C133.307 15.9783 133.108 15.9003 132.909 15.805V18.6H131.739ZM133.819 15.35C134.105 15.35 134.347 15.2807 134.547 15.142C134.755 14.9947 134.911 14.7347 135.015 14.362C135.127 13.9807 135.184 13.4433 135.184 12.75C135.184 12.0567 135.127 11.5237 135.015 11.151C134.911 10.7697 134.755 10.5097 134.547 10.371C134.347 10.2237 134.105 10.15 133.819 10.15C133.654 10.15 133.485 10.176 133.312 10.228C133.138 10.28 133.004 10.3407 132.909 10.41V15.09C133.004 15.1507 133.138 15.2113 133.312 15.272C133.485 15.324 133.654 15.35 133.819 15.35ZM139.927 16.13C139.407 16.13 138.969 16.026 138.614 15.818C138.258 15.6013 137.985 15.246 137.795 14.752C137.613 14.258 137.522 13.5907 137.522 12.75C137.522 11.9007 137.613 11.2333 137.795 10.748C137.985 10.254 138.258 9.903 138.614 9.695C138.969 9.47833 139.407 9.37 139.927 9.37C140.447 9.37 140.884 9.47833 141.24 9.695C141.604 9.903 141.877 10.254 142.059 10.748C142.241 11.2333 142.332 11.9007 142.332 12.75C142.332 13.5907 142.241 14.258 142.059 14.752C141.877 15.246 141.604 15.6013 141.24 15.818C140.884 16.026 140.447 16.13 139.927 16.13ZM139.927 15.415C140.143 15.415 140.343 15.337 140.525 15.181C140.715 15.025 140.867 14.7563 140.98 14.375C141.101 13.985 141.162 13.4433 141.162 12.75C141.162 12.0567 141.101 11.5193 140.98 11.138C140.867 10.748 140.715 10.475 140.525 10.319C140.343 10.163 140.143 10.085 139.927 10.085C139.71 10.085 139.506 10.163 139.316 10.319C139.134 10.475 138.982 10.748 138.861 11.138C138.748 11.5193 138.692 12.0567 138.692 12.75C138.692 13.4433 138.748 13.985 138.861 14.375C138.982 14.7563 139.134 15.025 139.316 15.181C139.506 15.337 139.71 15.415 139.927 15.415ZM142.919 17.885V15.155H143.504C143.599 15.0077 143.712 14.7867 143.842 14.492C143.981 14.1973 144.063 13.79 144.089 13.27L144.284 9.5H148.119V15.155H148.899V17.885H148.184C148.089 17.625 148.006 17.326 147.937 16.988C147.876 16.65 147.829 16.3207 147.794 16H144.024C143.989 16.3207 143.937 16.65 143.868 16.988C143.807 17.326 143.729 17.625 143.634 17.885H142.919ZM144.674 15.155H146.949V10.345H145.415L145.259 13.27C145.233 13.79 145.151 14.1973 145.012 14.492C144.882 14.7867 144.769 15.0077 144.674 15.155ZM151.761 16.13C151.371 16.13 151.028 16.0737 150.734 15.961C150.448 15.8483 150.222 15.6447 150.058 15.35C149.893 15.0467 149.811 14.6133 149.811 14.05C149.811 13.504 149.893 13.088 150.058 12.802C150.222 12.5073 150.448 12.308 150.734 12.204C151.028 12.0913 151.371 12.035 151.761 12.035C151.96 12.035 152.177 12.048 152.411 12.074C152.653 12.1 152.87 12.1303 153.061 12.165V11.58C153.061 10.9907 152.935 10.605 152.684 10.423C152.441 10.241 152.09 10.15 151.631 10.15H150.331V9.63C150.53 9.56067 150.773 9.5 151.059 9.448C151.353 9.396 151.631 9.37 151.891 9.37C152.411 9.37 152.844 9.43067 153.191 9.552C153.537 9.66467 153.797 9.88133 153.971 10.202C154.144 10.514 154.231 10.9733 154.231 11.58V16H153.256L153.191 15.61H153.126C152.961 15.7747 152.757 15.9047 152.515 16C152.272 16.0867 152.021 16.13 151.761 16.13ZM152.151 15.35C152.315 15.35 152.484 15.324 152.658 15.272C152.831 15.2113 152.965 15.1507 153.061 15.09V12.815H152.151C151.934 12.815 151.735 12.8497 151.553 12.919C151.379 12.9883 151.241 13.114 151.137 13.296C151.033 13.4693 150.981 13.7207 150.981 14.05C150.981 14.3967 151.033 14.6653 151.137 14.856C151.241 15.038 151.379 15.168 151.553 15.246C151.735 15.3153 151.934 15.35 152.151 15.35ZM155.923 16.13C155.732 16.13 155.563 16.1083 155.416 16.065C155.277 16.0217 155.208 16 155.208 16V15.48C155.468 15.48 155.654 15.4367 155.767 15.35C155.88 15.2633 155.953 15.155 155.988 15.025L156.313 13.79C156.426 13.3653 156.569 13.0707 156.742 12.906C156.924 12.7413 157.132 12.633 157.366 12.581V12.529C157.175 12.477 157.006 12.373 156.859 12.217C156.72 12.0523 156.582 11.775 156.443 11.385L156.118 10.475C156.075 10.345 155.997 10.2367 155.884 10.15C155.78 10.0633 155.598 10.02 155.338 10.02V9.5C155.338 9.5 155.416 9.47833 155.572 9.435C155.728 9.39167 155.888 9.37 156.053 9.37C156.408 9.37 156.677 9.461 156.859 9.643C157.05 9.81633 157.214 10.0937 157.353 10.475L157.678 11.385C157.782 11.6797 157.895 11.8833 158.016 11.996C158.137 12.1087 158.267 12.165 158.406 12.165H158.666V9.5H159.836V12.165H160.096C160.235 12.165 160.365 12.1087 160.486 11.996C160.607 11.8833 160.72 11.6797 160.824 11.385L161.149 10.475C161.288 10.0937 161.448 9.81633 161.63 9.643C161.821 9.461 162.094 9.37 162.449 9.37C162.614 9.37 162.774 9.39167 162.93 9.435C163.086 9.47833 163.164 9.5 163.164 9.5V10.02C162.904 10.02 162.718 10.0633 162.605 10.15C162.501 10.2367 162.427 10.345 162.384 10.475L162.059 11.385C161.92 11.775 161.782 12.0523 161.643 12.217C161.504 12.373 161.335 12.477 161.136 12.529V12.581C161.37 12.633 161.574 12.7413 161.747 12.906C161.929 13.0707 162.076 13.3653 162.189 13.79L162.514 15.025C162.549 15.155 162.622 15.2633 162.735 15.35C162.848 15.4367 163.034 15.48 163.294 15.48V16C163.294 16 163.225 16.0217 163.086 16.065C162.947 16.1083 162.778 16.13 162.579 16.13C162.224 16.13 161.942 16.0347 161.734 15.844C161.526 15.6533 161.374 15.3803 161.279 15.025L160.954 13.79C160.815 13.27 160.529 13.01 160.096 13.01H159.836V16H158.666V13.01H158.406C157.981 13.01 157.695 13.27 157.548 13.79L157.223 15.025C157.128 15.3803 156.976 15.6533 156.768 15.844C156.56 16.0347 156.278 16.13 155.923 16.13ZM165.954 16.13C165.564 16.13 165.222 16.0737 164.927 15.961C164.641 15.8483 164.416 15.6447 164.251 15.35C164.086 15.0467 164.004 14.6133 164.004 14.05C164.004 13.504 164.086 13.088 164.251 12.802C164.416 12.5073 164.641 12.308 164.927 12.204C165.222 12.0913 165.564 12.035 165.954 12.035C166.153 12.035 166.37 12.048 166.604 12.074C166.847 12.1 167.063 12.1303 167.254 12.165V11.58C167.254 10.9907 167.128 10.605 166.877 10.423C166.634 10.241 166.283 10.15 165.824 10.15H164.524V9.63C164.723 9.56067 164.966 9.5 165.252 9.448C165.547 9.396 165.824 9.37 166.084 9.37C166.604 9.37 167.037 9.43067 167.384 9.552C167.731 9.66467 167.991 9.88133 168.164 10.202C168.337 10.514 168.424 10.9733 168.424 11.58V16H167.449L167.384 15.61H167.319C167.154 15.7747 166.951 15.9047 166.708 16C166.465 16.0867 166.214 16.13 165.954 16.13ZM166.344 15.35C166.509 15.35 166.678 15.324 166.851 15.272C167.024 15.2113 167.159 15.1507 167.254 15.09V12.815H166.344C166.127 12.815 165.928 12.8497 165.746 12.919C165.573 12.9883 165.434 13.114 165.33 13.296C165.226 13.4693 165.174 13.7207 165.174 14.05C165.174 14.3967 165.226 14.6653 165.33 14.856C165.434 15.038 165.573 15.168 165.746 15.246C165.928 15.3153 166.127 15.35 166.344 15.35ZM173.366 16V9.5H174.536V13.92H174.601L176.551 9.5H177.916V16H176.746V11.45H176.681L174.601 16H173.366ZM182.863 16V9.5H187.348V16H186.178V10.345H184.033V16H182.863ZM191.178 16.13C190.658 16.13 190.22 16.026 189.865 15.818C189.509 15.6013 189.236 15.246 189.045 14.752C188.864 14.258 188.773 13.5907 188.773 12.75C188.773 11.9007 188.864 11.2333 189.045 10.748C189.236 10.254 189.509 9.903 189.865 9.695C190.22 9.47833 190.658 9.37 191.178 9.37C191.698 9.37 192.135 9.47833 192.491 9.695C192.855 9.903 193.128 10.254 193.31 10.748C193.492 11.2333 193.583 11.9007 193.583 12.75C193.583 13.5907 193.492 14.258 193.31 14.752C193.128 15.246 192.855 15.6013 192.491 15.818C192.135 16.026 191.698 16.13 191.178 16.13ZM191.178 15.415C191.394 15.415 191.594 15.337 191.776 15.181C191.966 15.025 192.118 14.7563 192.231 14.375C192.352 13.985 192.413 13.4433 192.413 12.75C192.413 12.0567 192.352 11.5193 192.231 11.138C192.118 10.748 191.966 10.475 191.776 10.319C191.594 10.163 191.394 10.085 191.178 10.085C190.961 10.085 190.757 10.163 190.567 10.319C190.385 10.475 190.233 10.748 190.112 11.138C189.999 11.5193 189.943 12.0567 189.943 12.75C189.943 13.4433 189.999 13.985 190.112 14.375C190.233 14.7563 190.385 15.025 190.567 15.181C190.757 15.337 190.961 15.415 191.178 15.415ZM199.107 16.13C198.752 16.13 198.47 16.0347 198.262 15.844C198.054 15.6533 197.902 15.3803 197.807 15.025L197.482 13.79C197.343 13.27 197.057 13.01 196.624 13.01H196.182V16H195.012V9.5H196.182V12.165H196.624C196.763 12.165 196.893 12.1087 197.014 11.996C197.135 11.8833 197.248 11.6797 197.352 11.385L197.677 10.475C197.816 10.0937 197.976 9.81633 198.158 9.643C198.349 9.461 198.622 9.37 198.977 9.37C199.142 9.37 199.302 9.39167 199.458 9.435C199.614 9.47833 199.692 9.5 199.692 9.5V10.02C199.432 10.02 199.246 10.0633 199.133 10.15C199.029 10.2367 198.955 10.345 198.912 10.475L198.587 11.385C198.448 11.775 198.31 12.0523 198.171 12.217C198.032 12.373 197.863 12.477 197.664 12.529V12.581C197.898 12.633 198.102 12.7413 198.275 12.906C198.457 13.0707 198.604 13.3653 198.717 13.79L199.042 15.025C199.077 15.155 199.15 15.2633 199.263 15.35C199.376 15.4367 199.562 15.48 199.822 15.48V16C199.822 16 199.753 16.0217 199.614 16.065C199.475 16.1083 199.306 16.13 199.107 16.13ZM201.971 18.73C201.78 18.73 201.577 18.6997 201.36 18.639C201.152 18.587 200.966 18.5307 200.801 18.47V17.95H201.711C201.928 17.95 202.11 17.9023 202.257 17.807C202.413 17.7117 202.543 17.5297 202.647 17.261C202.76 17.001 202.859 16.624 202.946 16.13C202.521 16.13 202.183 15.9913 201.932 15.714C201.681 15.4367 201.499 15.0553 201.386 14.57L200.216 9.5H201.386L202.556 14.57C202.617 14.83 202.695 15.0163 202.79 15.129C202.885 15.233 202.989 15.285 203.102 15.285L204.181 9.5H205.351L204.116 16.13C203.951 17.04 203.7 17.6987 203.362 18.106C203.024 18.522 202.56 18.73 201.971 18.73ZM206.59 16V9.5H211.075V16H209.905V10.345H207.76V16H206.59ZM216.855 16.13C216.5 16.13 216.218 16.0347 216.01 15.844C215.802 15.6533 215.65 15.3803 215.555 15.025L215.23 13.79C215.091 13.27 214.805 13.01 214.372 13.01H213.93V16H212.76V9.5H213.93V12.165H214.372C214.511 12.165 214.641 12.1087 214.762 11.996C214.883 11.8833 214.996 11.6797 215.1 11.385L215.425 10.475C215.564 10.0937 215.724 9.81633 215.906 9.643C216.097 9.461 216.37 9.37 216.725 9.37C216.89 9.37 217.05 9.39167 217.206 9.435C217.362 9.47833 217.44 9.5 217.44 9.5V10.02C217.18 10.02 216.994 10.0633 216.881 10.15C216.777 10.2367 216.703 10.345 216.66 10.475L216.335 11.385C216.196 11.775 216.058 12.0523 215.919 12.217C215.78 12.373 215.611 12.477 215.412 12.529V12.581C215.646 12.633 215.85 12.7413 216.023 12.906C216.205 13.0707 216.352 13.3653 216.465 13.79L216.79 15.025C216.825 15.155 216.898 15.2633 217.011 15.35C217.124 15.4367 217.31 15.48 217.57 15.48V16C217.57 16 217.501 16.0217 217.362 16.065C217.223 16.1083 217.054 16.13 216.855 16.13ZM220.239 16.13C219.849 16.13 219.507 16.0737 219.212 15.961C218.926 15.8483 218.701 15.6447 218.536 15.35C218.371 15.0467 218.289 14.6133 218.289 14.05C218.289 13.504 218.371 13.088 218.536 12.802C218.701 12.5073 218.926 12.308 219.212 12.204C219.507 12.0913 219.849 12.035 220.239 12.035C220.438 12.035 220.655 12.048 220.889 12.074C221.132 12.1 221.348 12.1303 221.539 12.165V11.58C221.539 10.9907 221.413 10.605 221.162 10.423C220.919 10.241 220.568 10.15 220.109 10.15H218.809V9.63C219.008 9.56067 219.251 9.5 219.537 9.448C219.832 9.396 220.109 9.37 220.369 9.37C220.889 9.37 221.322 9.43067 221.669 9.552C222.016 9.66467 222.276 9.88133 222.449 10.202C222.622 10.514 222.709 10.9733 222.709 11.58V16H221.734L221.669 15.61H221.604C221.439 15.7747 221.236 15.9047 220.993 16C220.75 16.0867 220.499 16.13 220.239 16.13ZM220.629 15.35C220.794 15.35 220.963 15.324 221.136 15.272C221.309 15.2113 221.444 15.1507 221.539 15.09V12.815H220.629C220.412 12.815 220.213 12.8497 220.031 12.919C219.858 12.9883 219.719 13.114 219.615 13.296C219.511 13.4693 219.459 13.7207 219.459 14.05C219.459 14.3967 219.511 14.6653 219.615 14.856C219.719 15.038 219.858 15.168 220.031 15.246C220.213 15.3153 220.412 15.35 220.629 15.35ZM124.845 32V25.5H126.015V28.295H128.16V25.5H129.33V32H128.16V29.14H126.015V32H124.845ZM133.485 32.13C132.835 32.13 132.311 32.0303 131.912 31.831C131.513 31.623 131.219 31.2763 131.028 30.791C130.846 30.297 130.755 29.6167 130.755 28.75C130.755 27.8833 130.842 27.2073 131.015 26.722C131.188 26.228 131.444 25.8813 131.782 25.682C132.12 25.474 132.536 25.37 133.03 25.37C133.533 25.37 133.949 25.474 134.278 25.682C134.616 25.8813 134.872 26.228 135.045 26.722C135.218 27.2073 135.305 27.8833 135.305 28.75V29.14H131.925C131.925 29.9807 132.064 30.5613 132.341 30.882C132.627 31.194 133.095 31.35 133.745 31.35H135.045V31.87C134.854 31.9307 134.612 31.987 134.317 32.039C134.022 32.0997 133.745 32.13 133.485 32.13ZM131.925 28.36H134.135C134.135 27.7707 134.083 27.3113 133.979 26.982C133.875 26.6527 133.741 26.423 133.576 26.293C133.411 26.1543 133.229 26.085 133.03 26.085C132.839 26.085 132.657 26.1543 132.484 26.293C132.319 26.423 132.185 26.6527 132.081 26.982C131.977 27.3113 131.925 27.7707 131.925 28.36ZM135.899 33.885V31.155H136.484C136.579 31.0077 136.692 30.7867 136.822 30.492C136.96 30.1973 137.043 29.79 137.069 29.27L137.264 25.5H141.099V31.155H141.879V33.885H141.164C141.068 33.625 140.986 33.326 140.917 32.988C140.856 32.65 140.808 32.3207 140.774 32H137.004C136.969 32.3207 136.917 32.65 136.848 32.988C136.787 33.326 136.709 33.625 136.614 33.885H135.899ZM137.654 31.155H139.929V26.345H138.395L138.239 29.27C138.213 29.79 138.13 30.1973 137.992 30.492C137.862 30.7867 137.749 31.0077 137.654 31.155ZM145.13 32.13C144.74 32.13 144.376 32.1083 144.038 32.065C143.709 32.0303 143.379 31.9653 143.05 31.87V25.63C143.379 25.5347 143.704 25.4697 144.025 25.435C144.354 25.3917 144.679 25.37 145 25.37C145.745 25.37 146.309 25.4957 146.69 25.747C147.08 25.9897 147.275 26.4707 147.275 27.19C147.275 27.4673 147.232 27.697 147.145 27.879C147.058 28.0523 146.946 28.191 146.807 28.295C146.668 28.3903 146.521 28.4683 146.365 28.529V28.581C146.564 28.633 146.751 28.724 146.924 28.854C147.106 28.984 147.253 29.1573 147.366 29.374C147.479 29.582 147.535 29.8507 147.535 30.18C147.535 30.7 147.448 31.103 147.275 31.389C147.102 31.6663 146.837 31.8613 146.482 31.974C146.127 32.078 145.676 32.13 145.13 32.13ZM144.22 31.35H145.13C145.52 31.35 145.823 31.2677 146.04 31.103C146.257 30.9383 146.365 30.6307 146.365 30.18C146.365 29.7207 146.257 29.413 146.04 29.257C145.823 29.0923 145.52 29.01 145.13 29.01H144.22V31.35ZM144.22 28.23H145C145.329 28.23 145.594 28.1563 145.793 28.009C146.001 27.853 146.105 27.58 146.105 27.19C146.105 26.8 146.001 26.5313 145.793 26.384C145.594 26.228 145.329 26.15 145 26.15H144.22V28.23ZM148.903 32V25.5H150.073V29.92H150.138L152.088 25.5H153.453V32H152.283V27.45H152.218L150.138 32H148.903ZM155.149 32.13C154.958 32.13 154.789 32.1083 154.642 32.065C154.503 32.0217 154.434 32 154.434 32V31.48C154.694 31.48 154.88 31.4367 154.993 31.35C155.105 31.2633 155.179 31.155 155.214 31.025L155.539 29.79C155.651 29.3653 155.794 29.0707 155.968 28.906C156.15 28.7413 156.358 28.633 156.592 28.581V28.529C156.401 28.477 156.232 28.373 156.085 28.217C155.946 28.0523 155.807 27.775 155.669 27.385L155.344 26.475C155.3 26.345 155.222 26.2367 155.11 26.15C155.006 26.0633 154.824 26.02 154.564 26.02V25.5C154.564 25.5 154.642 25.4783 154.798 25.435C154.954 25.3917 155.114 25.37 155.279 25.37C155.634 25.37 155.903 25.461 156.085 25.643C156.275 25.8163 156.44 26.0937 156.579 26.475L156.904 27.385C157.008 27.6797 157.12 27.8833 157.242 27.996C157.363 28.1087 157.493 28.165 157.632 28.165H157.892V25.5H159.062V28.165H159.322C159.46 28.165 159.59 28.1087 159.712 27.996C159.833 27.8833 159.946 27.6797 160.05 27.385L160.375 26.475C160.513 26.0937 160.674 25.8163 160.856 25.643C161.046 25.461 161.319 25.37 161.675 25.37C161.839 25.37 162 25.3917 162.156 25.435C162.312 25.4783 162.39 25.5 162.39 25.5V26.02C162.13 26.02 161.943 26.0633 161.831 26.15C161.727 26.2367 161.653 26.345 161.61 26.475L161.285 27.385C161.146 27.775 161.007 28.0523 160.869 28.217C160.73 28.373 160.561 28.477 160.362 28.529V28.581C160.596 28.633 160.799 28.7413 160.973 28.906C161.155 29.0707 161.302 29.3653 161.415 29.79L161.74 31.025C161.774 31.155 161.848 31.2633 161.961 31.35C162.073 31.4367 162.26 31.48 162.52 31.48V32C162.52 32 162.45 32.0217 162.312 32.065C162.173 32.1083 162.004 32.13 161.805 32.13C161.449 32.13 161.168 32.0347 160.96 31.844C160.752 31.6533 160.6 31.3803 160.505 31.025L160.18 29.79C160.041 29.27 159.755 29.01 159.322 29.01H159.062V32H157.892V29.01H157.632C157.207 29.01 156.921 29.27 156.774 29.79L156.449 31.025C156.353 31.3803 156.202 31.6533 155.994 31.844C155.786 32.0347 155.504 32.13 155.149 32.13ZM163.49 32V25.5H164.66V29.92H164.725L166.675 25.5H168.04V32H166.87V27.45H166.805L164.725 32H163.49ZM169.606 32L170.061 25.5H171.426L172.96 29.595H173.012L174.546 25.5H175.911L176.366 32H175.261L174.936 27.385H174.871L173.506 31.025H172.466L171.101 27.385H171.036L170.711 32H169.606ZM180.069 32.13C179.549 32.13 179.111 32.026 178.756 31.818C178.401 31.6013 178.128 31.246 177.937 30.752C177.755 30.258 177.664 29.5907 177.664 28.75C177.664 27.9007 177.755 27.2333 177.937 26.748C178.128 26.254 178.401 25.903 178.756 25.695C179.111 25.4783 179.549 25.37 180.069 25.37C180.589 25.37 181.027 25.4783 181.382 25.695C181.746 25.903 182.019 26.254 182.201 26.748C182.383 27.2333 182.474 27.9007 182.474 28.75C182.474 29.5907 182.383 30.258 182.201 30.752C182.019 31.246 181.746 31.6013 181.382 31.818C181.027 32.026 180.589 32.13 180.069 32.13ZM180.069 31.415C180.286 31.415 180.485 31.337 180.667 31.181C180.858 31.025 181.009 30.7563 181.122 30.375C181.243 29.985 181.304 29.4433 181.304 28.75C181.304 28.0567 181.243 27.5193 181.122 27.138C181.009 26.748 180.858 26.475 180.667 26.319C180.485 26.163 180.286 26.085 180.069 26.085C179.852 26.085 179.649 26.163 179.458 26.319C179.276 26.475 179.124 26.748 179.003 27.138C178.89 27.5193 178.834 28.0567 178.834 28.75C178.834 29.4433 178.89 29.985 179.003 30.375C179.124 30.7563 179.276 31.025 179.458 31.181C179.649 31.337 179.852 31.415 180.069 31.415ZM186.179 32.13C185.598 32.13 185.117 32.0303 184.736 31.831C184.363 31.623 184.086 31.2763 183.904 30.791C183.73 30.297 183.644 29.6167 183.644 28.75C183.644 27.8833 183.73 27.2073 183.904 26.722C184.077 26.228 184.341 25.8813 184.697 25.682C185.061 25.474 185.511 25.37 186.049 25.37C186.309 25.37 186.586 25.396 186.881 25.448C187.175 25.5 187.418 25.5607 187.609 25.63V26.15H186.309C185.988 26.15 185.715 26.2237 185.49 26.371C185.264 26.5097 185.095 26.7697 184.983 27.151C184.87 27.5237 184.814 28.0567 184.814 28.75C184.814 29.4433 184.87 29.9807 184.983 30.362C185.104 30.7347 185.286 30.9947 185.529 31.142C185.771 31.2807 186.075 31.35 186.439 31.35H187.739V31.87C187.548 31.9307 187.305 31.987 187.011 32.039C186.716 32.0997 186.439 32.13 186.179 32.13ZM189.754 32V26.345H188.064V25.5H192.614V26.345H190.924V32H189.754ZM193.59 32V25.5H194.76V29.92H194.825L196.775 25.5H198.14V32H196.97V27.45H196.905L194.825 32H193.59ZM205.166 32.13C204.776 32.13 204.412 32.1083 204.074 32.065C203.745 32.0303 203.416 31.9653 203.086 31.87V25.63C203.416 25.5347 203.741 25.4697 204.061 25.435C204.391 25.3917 204.716 25.37 205.036 25.37C205.782 25.37 206.345 25.4957 206.726 25.747C207.116 25.9897 207.311 26.4707 207.311 27.19C207.311 27.4673 207.268 27.697 207.181 27.879C207.095 28.0523 206.982 28.191 206.843 28.295C206.705 28.3903 206.557 28.4683 206.401 28.529V28.581C206.601 28.633 206.787 28.724 206.96 28.854C207.142 28.984 207.29 29.1573 207.402 29.374C207.515 29.582 207.571 29.8507 207.571 30.18C207.571 30.7 207.485 31.103 207.311 31.389C207.138 31.6663 206.874 31.8613 206.518 31.974C206.163 32.078 205.712 32.13 205.166 32.13ZM204.256 31.35H205.166C205.556 31.35 205.86 31.2677 206.076 31.103C206.293 30.9383 206.401 30.6307 206.401 30.18C206.401 29.7207 206.293 29.413 206.076 29.257C205.86 29.0923 205.556 29.01 205.166 29.01H204.256V31.35ZM204.256 28.23H205.036C205.366 28.23 205.63 28.1563 205.829 28.009C206.037 27.853 206.141 27.58 206.141 27.19C206.141 26.8 206.037 26.5313 205.829 26.384C205.63 26.228 205.366 26.15 205.036 26.15H204.256V28.23ZM212.059 32L212.579 22.9H214.009L216.128 29.14H216.18L218.299 22.9H219.729L220.249 32H219.079L218.689 25.24H218.624L216.739 30.83H215.569L213.684 25.24H213.619L213.229 32H212.059ZM221.812 32V25.5H222.982V29.92H223.047L224.997 25.5H226.362V32H225.192V27.45H225.127L223.047 32H221.812ZM228.058 32V25.5H229.228V28.295H231.373V25.5H232.543V32H231.373V29.14H229.228V32H228.058ZM236.503 32.13C235.922 32.13 235.441 32.0303 235.06 31.831C234.687 31.623 234.41 31.2763 234.228 30.791C234.054 30.297 233.968 29.6167 233.968 28.75C233.968 27.8833 234.054 27.2073 234.228 26.722C234.401 26.228 234.665 25.8813 235.021 25.682C235.385 25.474 235.835 25.37 236.373 25.37C236.633 25.37 236.91 25.396 237.205 25.448C237.499 25.5 237.742 25.5607 237.933 25.63V26.15H236.633C236.312 26.15 236.039 26.2237 235.814 26.371C235.588 26.5097 235.419 26.7697 235.307 27.151C235.194 27.5237 235.138 28.0567 235.138 28.75C235.138 29.4433 235.194 29.9807 235.307 30.362C235.428 30.7347 235.61 30.9947 235.853 31.142C236.095 31.2807 236.399 31.35 236.763 31.35H238.063V31.87C237.872 31.9307 237.629 31.987 237.335 32.039C237.04 32.0997 236.763 32.13 236.503 32.13ZM243.198 32.13C242.842 32.13 242.561 32.0347 242.353 31.844C242.145 31.6533 241.993 31.3803 241.898 31.025L241.573 29.79C241.434 29.27 241.148 29.01 240.715 29.01H240.273V32H239.103V25.5H240.273V28.165H240.715C240.853 28.165 240.983 28.1087 241.105 27.996C241.226 27.8833 241.339 27.6797 241.443 27.385L241.768 26.475C241.906 26.0937 242.067 25.8163 242.249 25.643C242.439 25.461 242.712 25.37 243.068 25.37C243.232 25.37 243.393 25.3917 243.549 25.435C243.705 25.4783 243.783 25.5 243.783 25.5V26.02C243.523 26.02 243.336 26.0633 243.224 26.15C243.12 26.2367 243.046 26.345 243.003 26.475L242.678 27.385C242.539 27.775 242.4 28.0523 242.262 28.217C242.123 28.373 241.954 28.477 241.755 28.529V28.581C241.989 28.633 242.192 28.7413 242.366 28.906C242.548 29.0707 242.695 29.3653 242.808 29.79L243.133 31.025C243.167 31.155 243.241 31.2633 243.354 31.35C243.466 31.4367 243.653 31.48 243.913 31.48V32C243.913 32 243.843 32.0217 243.705 32.065C243.566 32.1083 243.397 32.13 243.198 32.13ZM247.235 32.13C246.585 32.13 246.061 32.0303 245.662 31.831C245.263 31.623 244.969 31.2763 244.778 30.791C244.596 30.297 244.505 29.6167 244.505 28.75C244.505 27.8833 244.592 27.2073 244.765 26.722C244.938 26.228 245.194 25.8813 245.532 25.682C245.87 25.474 246.286 25.37 246.78 25.37C247.283 25.37 247.699 25.474 248.028 25.682C248.366 25.8813 248.622 26.228 248.795 26.722C248.968 27.2073 249.055 27.8833 249.055 28.75V29.14H245.675C245.675 29.9807 245.814 30.5613 246.091 30.882C246.377 31.194 246.845 31.35 247.495 31.35H248.795V31.87C248.604 31.9307 248.362 31.987 248.067 32.039C247.772 32.0997 247.495 32.13 247.235 32.13ZM245.675 28.36H247.885C247.885 27.7707 247.833 27.3113 247.729 26.982C247.625 26.6527 247.491 26.423 247.326 26.293C247.161 26.1543 246.979 26.085 246.78 26.085C246.589 26.085 246.407 26.1543 246.234 26.293C246.069 26.423 245.935 26.6527 245.831 26.982C245.727 27.3113 245.675 27.7707 245.675 28.36Z" fill="white"/>
<defs>
<clipPath id="clip0_127_1935">
<rect width="90" height="36.9643" fill="white" transform="translate(0 1.51807)"/>
</clipPath>
</defs>
</svg>
