<svg width="300" height="256" viewBox="0 0 300 256" fill="none" xmlns="http://www.w3.org/2000/svg">
<g filter="url(#filter0_d_132_2108)">
<rect x="4.5" y="0.5" width="291" height="246.429" stroke="black" shape-rendering="crispEdges"/>
<g clip-path="url(#clip0_132_2108)">
<path d="M212 17.6892V26.3446H186.032V52.6892H177.438V26.3446H167.812V26.2311L170.507 17.6892H177.438V10.8878L186.032 8.18237V17.6892H212Z" fill="white"/>
<path d="M27.4607 32.4081C30.2115 31.4139 32.5901 29.588 34.2713 27.1802C35.9524 24.7724 36.8539 21.9003 36.8525 18.9567V18.0675C36.8537 16.1765 36.4848 14.3037 35.7669 12.5564C35.049 10.8091 33.9961 9.22143 32.6685 7.88427C31.3409 6.54711 29.7647 5.48665 28.0298 4.76356C26.295 4.04047 24.4357 3.66893 22.5582 3.67017H4V52.6892H12.6405V33.2784H17.9656L29.2357 52.6892H39.1629L27.4607 32.4081ZM12.6405 11.1621H21.6566C23.3855 11.2274 25.0219 11.965 26.2222 13.2201C27.4224 14.4752 28.093 16.1499 28.093 17.8925C28.093 19.6351 27.4224 21.3098 26.2222 22.5649C25.0219 23.82 23.3855 24.5576 21.6566 24.6229H12.6405V11.1621Z" fill="white"/>
<path d="M77.472 38.1406C77.6235 37.1547 77.6988 36.1584 77.6974 35.1608C77.7017 33.9866 77.5948 32.8146 77.378 31.6608C75.8378 23.1473 68.7846 16.6959 60.3132 16.6959C50.7054 16.6959 42.929 24.9635 42.929 35.1608C42.929 45.3581 50.7054 53.6257 60.3132 53.6257C63.6733 53.5829 66.9487 52.5579 69.7414 50.6754C72.5341 48.7929 74.7238 46.134 76.0444 43.0216L67.3194 40.9973C66.5794 42.2013 65.5528 43.2004 64.3327 43.904C63.1126 44.6077 61.7375 44.9937 60.3319 45.0271C56.4907 45.0271 53.2317 42.1892 52.0108 38.1406H77.472ZM51.8699 31.6608C52.9688 27.3946 56.3404 24.2919 60.3226 24.2919C64.3047 24.2919 67.6857 27.3946 68.7752 31.6608H51.8699Z" fill="white"/>
<path d="M101.168 27.1488L107.948 23.1097C106.922 21.5422 105.602 20.1924 104.06 19.1367C102.663 18.1981 101.116 17.5101 99.4864 17.1029C97.2902 16.4876 94.9925 16.3298 92.7337 16.6394C91.341 16.8288 89.9816 17.2141 88.6952 17.784C87.688 18.2519 86.7417 18.8428 85.8777 19.5434C84.8669 20.3249 84.0074 21.2868 83.3419 22.3813C82.9119 23.115 82.5743 23.8999 82.337 24.7178C81.9632 26.0062 81.8358 27.3544 81.9613 28.6907C82.06 29.9717 82.4453 31.2135 83.0883 32.3232C83.4126 32.8441 83.7903 33.3292 84.2153 33.7705C85.379 34.9979 86.7455 36.0125 88.2538 36.7691C89.6923 37.5172 91.2199 38.0767 92.7994 38.434C93.7386 38.6705 94.7248 38.9164 95.6921 39.1435C96.399 39.2977 97.0906 39.5162 97.7583 39.7962C98.2969 39.9799 98.7923 40.2729 99.214 40.657C99.6375 41.0918 99.9108 41.6523 99.9936 42.2556C100.07 42.8681 99.9374 43.4884 99.6179 44.0151C99.4106 44.3578 99.1357 44.654 98.8102 44.8854C98.2955 45.2708 97.7071 45.5446 97.0821 45.6894C95.9909 46.009 94.8445 46.0896 93.7198 45.9259C92.5257 45.7466 91.3866 45.3006 90.3858 44.6205C89.6326 44.1062 88.972 43.4664 88.4323 42.7286L81.2288 45.8313C81.3756 46.1547 81.5386 46.4704 81.7171 46.7773C82.2051 47.6031 82.7918 48.3655 83.464 49.0475C84.6552 50.2007 86.0463 51.1241 87.5682 51.7719C88.7362 52.3062 89.9579 52.7122 91.2122 52.9827C92.7007 53.3344 94.2308 53.4745 95.7579 53.3989C97.5424 53.3289 99.2978 52.9213 100.933 52.1976C102.738 51.3852 104.341 50.1802 105.629 48.6692C106.134 48.0947 106.566 47.4592 106.915 46.7773C107.527 45.5059 107.848 44.1128 107.854 42.7002C107.947 41.6515 107.82 40.5949 107.484 39.5981C107.148 38.6012 106.609 37.686 105.901 36.911C104.81 35.6499 103.499 34.6014 102.032 33.8178C100.694 33.0623 99.2924 32.4291 97.8428 31.9259C97.8428 31.9259 96.1899 31.2921 94.6966 30.8853L94.0485 30.7151L92.9591 30.4408C92.6022 30.3367 92.4144 30.2705 92.3205 30.2326C92.141 30.1745 91.9653 30.105 91.7945 30.0245C91.5079 29.9058 91.2314 29.7634 90.968 29.5989C90.7145 29.4464 90.4915 29.2475 90.3106 29.0124C90.0895 28.6929 89.9537 28.3216 89.9162 27.934C89.9078 27.7827 89.9078 27.6312 89.9162 27.4799C89.9192 27.3024 89.9349 27.1254 89.9631 26.9502C89.9939 26.7746 90.0346 26.6008 90.0852 26.4299C90.1365 26.2771 90.1993 26.1285 90.2731 25.9853C90.338 25.8674 90.4101 25.7537 90.4891 25.6448C90.552 25.558 90.6211 25.4758 90.6957 25.3988C90.6957 25.3988 90.752 25.3326 90.7614 25.3326C90.8393 25.2439 90.9241 25.1617 91.015 25.0867C91.1556 24.9691 91.3065 24.8646 91.4658 24.7745C91.6349 24.6705 91.7757 24.6042 91.8509 24.5664L92.1608 24.4056L92.5365 24.2637L92.7619 24.1975L93.1282 24.1124C93.5132 24.0272 93.9265 23.9799 93.9452 23.9705C94.3819 23.9238 94.8211 23.9049 95.2601 23.9137C96.0855 23.9234 96.9027 24.0803 97.6738 24.3772C98.1317 24.5597 98.5719 24.7845 98.9886 25.0488C99.2328 25.2002 99.4019 25.3232 99.4394 25.3515C99.8614 25.6437 100.243 25.9903 100.576 26.3826C100.715 26.5381 100.843 26.7024 100.961 26.8745L101.168 27.1488Z" fill="white"/>
<path d="M145.253 17.6609V52.661H136.678V49.407C135.557 50.7228 134.166 51.7787 132.602 52.502C131.038 53.2254 129.336 53.5991 127.615 53.5975H127.277C125.454 53.6 123.649 53.2408 121.965 52.5403C120.28 51.8399 118.749 50.812 117.459 49.5153C116.169 48.2187 115.145 46.6788 114.447 44.9835C113.748 43.2882 113.387 41.4709 113.386 39.6353V17.7839C113.386 17.7488 113.4 17.7151 113.425 17.6903C113.449 17.6654 113.483 17.6515 113.518 17.6515H121.97V37.4596C121.973 39.3998 122.74 41.2597 124.103 42.6307C125.466 44.0017 127.313 44.7718 129.24 44.7718H129.709C131.56 44.7718 133.335 44.0313 134.643 42.7133C135.952 41.3952 136.687 39.6075 136.687 37.7434V17.6609H145.253Z" fill="white"/>
<path d="M161.895 0H153.348V52.6893H161.895V0Z" fill="white"/>
<path d="M203.35 52.6893C208.127 52.6893 212 48.9412 212 44.3177C212 39.6942 208.127 35.946 203.35 35.946C198.573 35.946 194.7 39.6942 194.7 44.3177C194.7 48.9412 198.573 52.6893 203.35 52.6893Z" fill="#F8B806"/>
<path d="M8.12293 75.2312C8.12293 75.6001 8.12293 76.1204 8.17928 76.7258C8.17928 76.792 8.2638 77.6718 8.36711 78.2299C8.57718 79.323 9.08066 80.3372 9.82284 81.1623C10.8806 82.1844 12.2922 82.751 13.758 82.7421C14.95 82.6479 16.0883 82.2033 17.0316 81.4633C17.9749 80.7234 18.6817 79.7208 19.0644 78.5799C19.0589 79.6677 18.8143 80.7407 18.3483 81.722C17.8822 82.7033 17.2063 83.5685 16.3689 84.2556C15.4482 84.9206 14.3692 85.3285 13.2415 85.438C11.4372 85.6035 9.63792 85.0726 8.20746 83.9529C7.316 83.2005 6.61705 82.2435 6.16944 81.1623C5.86857 80.5017 5.65087 79.8057 5.5214 79.0907C5.23807 77.8234 5.1998 76.5131 5.4087 75.2312C5.65517 73.6168 6.33745 72.1017 7.38098 70.8515C7.98209 70.1131 8.72269 69.5022 9.55988 69.0542C11.0777 68.2927 12.8126 68.0918 14.4624 68.4866C15.1261 68.5957 15.7633 68.83 16.3407 69.1772C17.2551 69.7863 17.9731 70.6509 18.4069 71.665C18.7003 72.3015 18.9026 72.9767 19.008 73.6704C19.0917 74.1957 19.1263 74.7278 19.1113 75.2596L8.12293 75.2312ZM13.6171 74.1907C13.983 74.1903 14.3469 74.1362 14.6972 74.0299C15.0892 73.9533 15.453 73.7701 15.7491 73.5001C15.9472 73.2774 16.0952 73.0141 16.1827 72.7284C16.2702 72.4426 16.2953 72.1412 16.2562 71.8447C16.1869 71.251 15.9106 70.7013 15.4767 70.2934C14.9393 69.836 14.2906 69.5309 13.5974 69.4095C12.9041 69.2882 12.1913 69.3549 11.5321 69.6028C10.4064 70.0529 9.49071 70.9144 8.96819 72.015C8.59791 72.6816 8.35875 73.4139 8.2638 74.1718L13.6171 74.1907Z" fill="#F8B806"/>
<path d="M78.5614 75.2312C78.5614 75.6001 78.5614 76.1204 78.6178 76.7258C78.6178 76.792 78.7023 77.6718 78.8056 78.2299C79.0189 79.3163 79.5222 80.3235 80.2613 81.1434C81.3191 82.1654 82.7307 82.7321 84.1965 82.7231C85.3885 82.629 86.5267 82.1844 87.47 81.4444C88.4134 80.7045 89.1202 79.7019 89.5028 78.561C89.4973 79.6487 89.2528 80.7218 88.7867 81.7031C88.3207 82.6844 87.6448 83.5496 86.8074 84.2366C85.8867 84.9017 84.8077 85.3096 83.6799 85.4191C81.8757 85.5846 80.0764 85.0537 78.6459 83.9339C77.7617 83.1977 77.0632 82.2608 76.6079 81.2002C76.307 80.5395 76.0893 79.8436 75.9599 79.1285C75.6765 77.8613 75.6383 76.5509 75.8472 75.2691C76.0936 73.6547 76.7759 72.1396 77.8194 70.8893C78.4206 70.151 79.1612 69.5401 79.9983 69.092C81.5161 68.3305 83.2511 68.1296 84.9009 68.5245C85.5645 68.6335 86.2018 68.8678 86.7792 69.215C87.6936 69.8242 88.4116 70.6888 88.8454 71.7028C89.1387 72.3394 89.3411 73.0146 89.4465 73.7082C89.5301 74.2336 89.5647 74.7656 89.5498 75.2974L78.5614 75.2312ZM84.0556 74.1907C84.4215 74.1903 84.7853 74.1362 85.1357 74.0299C85.5277 73.9533 85.8915 73.7701 86.1875 73.5001C86.3857 73.2774 86.5336 73.0141 86.6212 72.7284C86.7087 72.4426 86.7338 72.1412 86.6947 71.8447C86.6253 71.251 86.3491 70.7013 85.9152 70.2934C85.3777 69.836 84.7291 69.5309 84.0358 69.4095C83.3426 69.2882 82.6298 69.3549 81.9706 69.6028C80.8448 70.0529 79.9292 70.9144 79.4067 72.015C79.0364 72.6816 78.7972 73.4139 78.7023 74.1718L84.0556 74.1907Z" fill="#F8B806"/>
<path d="M22.793 78.3245C22.9982 78.9698 23.2429 79.6016 23.5255 80.2164C24.3802 82.0421 24.9249 83.234 26.174 83.9056C27.087 84.3847 28.1421 84.5125 29.1418 84.2651C29.6315 84.1298 30.078 83.8691 30.4379 83.5083C30.6581 83.2768 30.8305 83.0035 30.9451 82.7043C31.0739 82.3701 31.1315 82.0124 31.1141 81.6543C31.1213 81.1435 30.9916 80.6402 30.7384 80.1975C30.5191 79.8629 30.2347 79.5766 29.9026 79.3556C29.4163 78.9981 28.8899 78.6996 28.3341 78.4664C27.395 78.0124 26.8314 77.7759 26.4088 77.5205C25.7056 77.2393 25.0322 76.8875 24.399 76.4705C23.8392 76.0573 23.3773 75.5242 23.0466 74.9097C22.7662 74.3106 22.6208 73.6564 22.6208 72.9941C22.6208 72.3318 22.7662 71.6777 23.0466 71.0786C23.9857 68.9975 26.3994 68.2407 28.1087 68.307C29.2512 68.3491 30.3583 68.7164 31.3019 69.3664L32.8704 68.2975V74.5786L30.6915 70.3786C29.9799 69.8228 29.1199 69.4935 28.2214 69.4326C27.5385 69.3648 26.8506 69.4961 26.2398 69.811C25.8664 69.9851 25.5432 70.252 25.3006 70.5867C25.1477 70.796 25.0303 71.0293 24.9531 71.2772C24.8714 71.5854 24.8491 71.9065 24.8873 72.2232C24.9107 72.5216 25.0041 72.8101 25.1597 73.0651C25.2867 73.2495 25.442 73.4124 25.6199 73.5475C25.8897 73.7762 26.1824 73.976 26.4933 74.1435C27.4325 74.6353 27.9772 74.8908 28.9822 75.3448C29.6101 75.6245 30.2216 75.9404 30.8136 76.2908C31.7141 76.7155 32.4905 77.3671 33.0676 78.1827C33.5243 78.9356 33.7497 79.8077 33.7156 80.6894C33.7063 81.5239 33.4831 82.3418 33.0676 83.0638C31.5649 85.5894 28.0524 85.5232 27.7237 85.5138C27.1616 85.4809 26.6044 85.3889 26.0613 85.2394C25.5364 85.1219 25.0389 84.9035 24.5962 84.5962C24.4513 84.4956 24.3161 84.3816 24.1924 84.2556L22.746 85.5138L22.793 78.3245Z" fill="#F8B806"/>
<path d="M57.3359 73.2921C57.3359 72.5637 57.3359 72.2043 57.2702 71.9488C57.2533 71.1655 56.941 70.4181 56.3967 69.8583C55.97 69.5411 55.4526 69.3718 54.9222 69.3759C54.1767 69.2773 53.4218 69.4666 52.8091 69.9056C52.4845 70.1508 52.2288 70.4768 52.0671 70.8516C51.6163 71.8637 52.1798 72.4786 51.6821 73.3489C51.5127 73.6665 51.2411 73.9167 50.9119 74.0583C50.6658 74.1498 50.3998 74.1726 50.1419 74.1243C49.884 74.076 49.6438 73.9584 49.4468 73.784C49.2214 73.5316 49.0676 73.2228 49.0015 72.8899C48.9354 72.557 48.9595 72.2124 49.0711 71.8921C49.1936 71.4375 49.4372 71.0254 49.7755 70.7002C50.9195 69.5226 52.3946 68.7269 54.0018 68.4205C54.941 68.2975 57.3265 67.9664 58.9325 69.6597C59.7516 70.5745 60.1977 71.7671 60.1816 72.9988L60.2286 83.0543L63.3842 81.8435C62.4797 82.9362 61.487 83.9518 60.4164 84.88C60.1566 85.128 59.8291 85.2921 59.4759 85.3511C59.1228 85.4101 58.7602 85.3613 58.4348 85.211C58.0416 84.9406 57.7331 84.563 57.5451 84.1225C57.3572 83.6819 57.2977 83.1966 57.3735 82.7232C57.1293 82.884 56.7442 83.1394 56.284 83.461C55.5362 84.0801 54.72 84.6102 53.8516 85.0408C53.2769 85.2901 52.655 85.4096 52.0296 85.3908C51.385 85.3822 50.754 85.2028 50.2001 84.8707C49.6461 84.5386 49.1888 84.0655 48.8739 83.4989C48.3686 82.5521 48.2249 81.4518 48.4701 80.4056C48.583 79.8004 48.8162 79.2245 49.1557 78.7124C49.6919 77.9737 50.3976 77.3765 51.2125 76.9718C51.8227 76.651 52.4498 76.3637 53.0908 76.111C53.8609 75.7799 54.2178 75.6475 55.0725 75.307C55.6172 75.0894 56.4155 74.7583 57.3735 74.361C57.3453 74.0867 57.3453 73.7272 57.3359 73.2921ZM57.3359 75.3732C56.1901 75.8083 55.2509 76.2245 54.5184 76.5556C53.6827 76.8655 52.9212 77.3489 52.2831 77.9745C51.8901 78.3883 51.5891 78.8817 51.4003 79.4218C51.2794 79.8169 51.2224 80.2289 51.2312 80.6421C51.1918 81.2108 51.3157 81.7789 51.5881 82.2786C51.8026 82.6679 52.1304 82.9815 52.5273 83.1773C52.7828 83.2761 53.0523 83.3336 53.3256 83.3475C53.6376 83.3841 53.9528 83.3841 54.2648 83.3475C55.3941 83.0263 56.4331 82.4432 57.2984 81.6448L57.3359 75.3732Z" fill="#F8B806"/>
<path d="M41.4451 64.7029V68.865H45.1361V70.0853H41.4451V81.3799C41.3798 81.6979 41.4062 82.0279 41.521 82.3313C41.6358 82.6347 41.8343 82.8986 42.0932 83.0921C42.4273 83.2593 42.8064 83.3124 43.1732 83.2435C43.456 83.2044 43.7295 83.1147 43.9809 82.9786C44.3763 82.7647 44.7452 82.5043 45.0797 82.2029L45.5118 81.8435C45.3427 82.1367 45.0985 82.5435 44.7698 83.007C44.4802 83.4469 44.1466 83.8558 43.7743 84.2272C43.3646 84.6382 42.8755 84.9602 42.3373 85.1732C42.1495 85.2521 41.9545 85.3123 41.755 85.3529C41.1098 85.4777 40.4415 85.3599 39.8767 85.0218C39.5371 84.769 39.2538 84.4472 39.0451 84.0774C38.8365 83.7076 38.707 83.2978 38.6651 82.8745C38.6269 82.64 38.6081 82.4027 38.6088 82.1651V70.0664H35.7913L41.4451 64.7029Z" fill="#F8B806"/>
<path d="M69.2916 64.7029V68.865H72.9826V70.0853H69.2916V81.3799C69.2264 81.6979 69.2527 82.0279 69.3675 82.3313C69.4823 82.6347 69.6808 82.8986 69.9397 83.0921C70.2738 83.2593 70.653 83.3124 71.0197 83.2435C71.3025 83.2044 71.576 83.1147 71.8274 82.9786C72.2211 82.7665 72.587 82.5059 72.9169 82.2029L73.3583 81.8435C73.1892 82.1367 72.9451 82.5435 72.6163 83.007C72.3267 83.4469 71.9932 83.8558 71.6208 84.2272C71.2111 84.6382 70.7221 84.9602 70.1839 85.1732C69.9956 85.2508 69.8007 85.3109 69.6016 85.3529C68.9563 85.4777 68.2881 85.3599 67.7232 85.0218C67.3836 84.769 67.1003 84.4472 66.8917 84.0774C66.683 83.7076 66.5536 83.2978 66.5117 82.8745C66.4734 82.64 66.4546 82.4027 66.4553 82.1651V70.0664H63.6096L69.2916 64.7029Z" fill="#F8B806"/>
</g>
<path d="M12.2809 115.333V108.325H13.6249V115.333H12.2809ZM9.36888 112.469V111.205H16.5369V112.469H9.36888ZM21.4889 117.557C20.6995 117.557 19.9315 117.434 19.1849 117.189C18.4489 116.943 17.8462 116.613 17.3769 116.197L18.1129 114.933C18.4862 115.285 18.9715 115.573 19.5689 115.797C20.1662 116.021 20.8062 116.133 21.4889 116.133C22.3209 116.133 22.9662 115.957 23.4249 115.605C23.8942 115.242 24.1289 114.757 24.1289 114.149C24.1289 113.562 23.9049 113.093 23.4569 112.741C23.0195 112.378 22.3209 112.197 21.3609 112.197H20.4649V111.077L23.7929 106.981L24.0169 107.621H17.8889V106.229H25.2809V107.317L21.9689 111.397L21.1369 110.901H21.6649C23.0195 110.901 24.0329 111.205 24.7049 111.813C25.3875 112.421 25.7289 113.194 25.7289 114.133C25.7289 114.762 25.5742 115.338 25.2649 115.861C24.9555 116.383 24.4862 116.799 23.8569 117.109C23.2382 117.407 22.4489 117.557 21.4889 117.557ZM28.9696 117.429L33.7216 106.901L34.1376 107.621H27.4816L28.2816 106.837V109.621H26.7456V106.229H35.1936V107.317L30.6656 117.429H28.9696ZM39.9309 117.557C39.1415 117.557 38.3735 117.434 37.6269 117.189C36.8909 116.943 36.2882 116.613 35.8189 116.197L36.5549 114.933C36.9282 115.285 37.4135 115.573 38.0109 115.797C38.6082 116.021 39.2429 116.133 39.9149 116.133C40.7682 116.133 41.4242 115.951 41.8829 115.589C42.3415 115.226 42.5709 114.741 42.5709 114.133C42.5709 113.717 42.4695 113.354 42.2669 113.045C42.0642 112.735 41.7122 112.501 41.2109 112.341C40.7202 112.17 40.0429 112.085 39.1789 112.085H36.6349L37.2269 106.229H43.5469V107.621H37.8189L38.6509 106.837L38.1869 111.461L37.3549 110.693H39.5149C40.6349 110.693 41.5362 110.837 42.2189 111.125C42.9015 111.413 43.3975 111.813 43.7069 112.325C44.0162 112.826 44.1709 113.407 44.1709 114.069C44.1709 114.709 44.0162 115.295 43.7069 115.829C43.3975 116.351 42.9282 116.773 42.2989 117.093C41.6802 117.402 40.8909 117.557 39.9309 117.557ZM52.4553 120.533C51.8473 119.562 51.3779 118.442 51.0473 117.173C50.7166 115.893 50.5513 114.517 50.5513 113.045C50.5513 111.573 50.7166 110.197 51.0473 108.917C51.3779 107.626 51.8473 106.506 52.4553 105.557H53.9113C53.2713 106.687 52.8019 107.871 52.5033 109.109C52.2046 110.335 52.0553 111.647 52.0553 113.045C52.0553 114.442 52.2046 115.759 52.5033 116.997C52.8019 118.223 53.2713 119.402 53.9113 120.533H52.4553ZM55.0139 117.429V116.341L59.5739 111.941C59.9792 111.557 60.2779 111.221 60.4699 110.933C60.6725 110.634 60.8059 110.362 60.8699 110.117C60.9445 109.861 60.9819 109.615 60.9819 109.381C60.9819 108.805 60.7792 108.351 60.3739 108.021C59.9685 107.69 59.3765 107.525 58.5979 107.525C58.0005 107.525 57.4619 107.626 56.9819 107.829C56.5019 108.021 56.0859 108.325 55.7339 108.741L54.6459 107.797C55.0725 107.253 55.6432 106.837 56.3579 106.549C57.0832 106.25 57.8779 106.101 58.7419 106.101C59.5205 106.101 60.1979 106.229 60.7739 106.485C61.3499 106.73 61.7925 107.087 62.1019 107.557C62.4219 108.026 62.5819 108.581 62.5819 109.221C62.5819 109.583 62.5339 109.941 62.4379 110.293C62.3419 110.645 62.1605 111.018 61.8939 111.413C61.6272 111.807 61.2432 112.25 60.7419 112.741L56.6779 116.661L56.2939 116.037H63.0619V117.429H55.0139ZM68.0094 106.101C69.0227 106.101 69.876 106.319 70.5694 106.757C71.2734 107.194 71.8067 107.829 72.1694 108.661C72.532 109.482 72.7134 110.49 72.7134 111.685C72.7134 112.954 72.4894 114.026 72.0414 114.901C71.5934 115.775 70.9747 116.437 70.1854 116.885C69.396 117.333 68.4734 117.557 67.4174 117.557C66.8947 117.557 66.388 117.503 65.8974 117.397C65.4174 117.29 64.996 117.125 64.6334 116.901L65.2414 115.653C65.54 115.845 65.8707 115.983 66.2334 116.069C66.6067 116.143 66.996 116.181 67.4014 116.181C68.532 116.181 69.4334 115.829 70.1054 115.125C70.7774 114.41 71.1134 113.354 71.1134 111.957C71.1134 111.733 71.1027 111.466 71.0814 111.157C71.06 110.847 71.012 110.543 70.9374 110.245L71.4654 110.789C71.316 111.279 71.0654 111.695 70.7134 112.037C70.372 112.367 69.956 112.618 69.4654 112.789C68.9854 112.949 68.4574 113.029 67.8814 113.029C67.1454 113.029 66.4894 112.89 65.9134 112.613C65.3374 112.335 64.884 111.946 64.5534 111.445C64.2227 110.933 64.0574 110.33 64.0574 109.637C64.0574 108.911 64.228 108.287 64.5694 107.765C64.9214 107.231 65.396 106.821 65.9934 106.533C66.6014 106.245 67.2734 106.101 68.0094 106.101ZM68.0734 107.397C67.5934 107.397 67.1667 107.487 66.7934 107.669C66.42 107.85 66.1267 108.101 65.9134 108.421C65.7107 108.741 65.6094 109.125 65.6094 109.573C65.6094 110.234 65.8387 110.762 66.2974 111.157C66.756 111.541 67.3747 111.733 68.1534 111.733C68.6654 111.733 69.1134 111.637 69.4974 111.445C69.892 111.253 70.196 110.991 70.4094 110.661C70.6334 110.33 70.7454 109.962 70.7454 109.557C70.7454 109.162 70.644 108.805 70.4414 108.485C70.2387 108.165 69.94 107.903 69.5454 107.701C69.1507 107.498 68.66 107.397 68.0734 107.397ZM75.4524 120.533H73.9964C74.647 119.402 75.1217 118.223 75.4204 116.997C75.719 115.759 75.8684 114.442 75.8684 113.045C75.8684 111.647 75.719 110.335 75.4204 109.109C75.1217 107.871 74.647 106.687 73.9964 105.557H75.4524C76.0817 106.506 76.5564 107.626 76.8764 108.917C77.207 110.197 77.3724 111.573 77.3724 113.045C77.3724 114.517 77.207 115.893 76.8764 117.173C76.5564 118.442 76.0817 119.562 75.4524 120.533ZM85.8435 117.429V106.869L86.5315 107.621H83.3155V106.229H87.4275V117.429H85.8435ZM94.2454 117.557C93.3387 117.557 92.5547 117.423 91.8934 117.157C91.232 116.89 90.72 116.511 90.3574 116.021C89.9947 115.519 89.8134 114.933 89.8134 114.261C89.8134 113.599 89.984 113.039 90.3254 112.581C90.6774 112.111 91.184 111.759 91.8454 111.525C92.5067 111.279 93.3067 111.157 94.2454 111.157C95.184 111.157 95.984 111.279 96.6454 111.525C97.3174 111.759 97.8294 112.111 98.1814 112.581C98.5334 113.05 98.7094 113.61 98.7094 114.261C98.7094 114.933 98.528 115.519 98.1654 116.021C97.8027 116.511 97.2854 116.89 96.6134 117.157C95.9414 117.423 95.152 117.557 94.2454 117.557ZM94.2454 116.261C95.1414 116.261 95.84 116.079 96.3414 115.717C96.8534 115.343 97.1094 114.842 97.1094 114.213C97.1094 113.594 96.8534 113.109 96.3414 112.757C95.84 112.394 95.1414 112.213 94.2454 112.213C93.36 112.213 92.6667 112.394 92.1654 112.757C91.664 113.109 91.4134 113.594 91.4134 114.213C91.4134 114.842 91.664 115.343 92.1654 115.717C92.6667 116.079 93.36 116.261 94.2454 116.261ZM94.2454 112.021C93.392 112.021 92.6667 111.909 92.0694 111.685C91.472 111.45 91.0134 111.119 90.6934 110.693C90.3734 110.255 90.2134 109.738 90.2134 109.141C90.2134 108.511 90.3787 107.973 90.7094 107.525C91.0507 107.066 91.5254 106.714 92.1334 106.469C92.7414 106.223 93.4454 106.101 94.2454 106.101C95.056 106.101 95.7654 106.223 96.3734 106.469C96.9814 106.714 97.456 107.066 97.7974 107.525C98.1387 107.973 98.3094 108.511 98.3094 109.141C98.3094 109.738 98.1494 110.255 97.8294 110.693C97.5094 111.119 97.0454 111.45 96.4374 111.685C95.8294 111.909 95.0987 112.021 94.2454 112.021ZM94.2454 110.997C95.024 110.997 95.632 110.837 96.0694 110.517C96.5174 110.197 96.7414 109.759 96.7414 109.205C96.7414 108.639 96.512 108.197 96.0534 107.877C95.5947 107.557 94.992 107.397 94.2454 107.397C93.4987 107.397 92.9014 107.557 92.4534 107.877C92.016 108.197 91.7974 108.639 91.7974 109.205C91.7974 109.759 92.0107 110.197 92.4374 110.517C92.8747 110.837 93.4774 110.997 94.2454 110.997ZM104.542 117.557C103.636 117.557 102.852 117.423 102.19 117.157C101.529 116.89 101.017 116.511 100.654 116.021C100.292 115.519 100.11 114.933 100.11 114.261C100.11 113.599 100.281 113.039 100.622 112.581C100.974 112.111 101.481 111.759 102.142 111.525C102.804 111.279 103.604 111.157 104.542 111.157C105.481 111.157 106.281 111.279 106.942 111.525C107.614 111.759 108.126 112.111 108.478 112.581C108.83 113.05 109.006 113.61 109.006 114.261C109.006 114.933 108.825 115.519 108.462 116.021C108.1 116.511 107.582 116.89 106.91 117.157C106.238 117.423 105.449 117.557 104.542 117.557ZM104.542 116.261C105.438 116.261 106.137 116.079 106.638 115.717C107.15 115.343 107.406 114.842 107.406 114.213C107.406 113.594 107.15 113.109 106.638 112.757C106.137 112.394 105.438 112.213 104.542 112.213C103.657 112.213 102.964 112.394 102.462 112.757C101.961 113.109 101.71 113.594 101.71 114.213C101.71 114.842 101.961 115.343 102.462 115.717C102.964 116.079 103.657 116.261 104.542 116.261ZM104.542 112.021C103.689 112.021 102.964 111.909 102.366 111.685C101.769 111.45 101.31 111.119 100.99 110.693C100.67 110.255 100.51 109.738 100.51 109.141C100.51 108.511 100.676 107.973 101.006 107.525C101.348 107.066 101.822 106.714 102.43 106.469C103.038 106.223 103.742 106.101 104.542 106.101C105.353 106.101 106.062 106.223 106.67 106.469C107.278 106.714 107.753 107.066 108.094 107.525C108.436 107.973 108.606 108.511 108.606 109.141C108.606 109.738 108.446 110.255 108.126 110.693C107.806 111.119 107.342 111.45 106.734 111.685C106.126 111.909 105.396 112.021 104.542 112.021ZM104.542 110.997C105.321 110.997 105.929 110.837 106.366 110.517C106.814 110.197 107.038 109.759 107.038 109.205C107.038 108.639 106.809 108.197 106.35 107.877C105.892 107.557 105.289 107.397 104.542 107.397C103.796 107.397 103.198 107.557 102.75 107.877C102.313 108.197 102.094 108.639 102.094 109.205C102.094 109.759 102.308 110.197 102.734 110.517C103.172 110.837 103.774 110.997 104.542 110.997ZM110.615 113.701V112.373H114.919V113.701H110.615ZM120.212 117.557C119.423 117.557 118.655 117.434 117.908 117.189C117.172 116.943 116.569 116.613 116.1 116.197L116.836 114.933C117.209 115.285 117.695 115.573 118.292 115.797C118.889 116.021 119.524 116.133 120.196 116.133C121.049 116.133 121.705 115.951 122.164 115.589C122.623 115.226 122.852 114.741 122.852 114.133C122.852 113.717 122.751 113.354 122.548 113.045C122.345 112.735 121.993 112.501 121.492 112.341C121.001 112.17 120.324 112.085 119.46 112.085H116.916L117.508 106.229H123.828V107.621H118.1L118.932 106.837L118.468 111.461L117.636 110.693H119.796C120.916 110.693 121.817 110.837 122.5 111.125C123.183 111.413 123.679 111.813 123.988 112.325C124.297 112.826 124.452 113.407 124.452 114.069C124.452 114.709 124.297 115.295 123.988 115.829C123.679 116.351 123.209 116.773 122.58 117.093C121.961 117.402 121.172 117.557 120.212 117.557ZM129.322 117.557C128.532 117.557 127.764 117.434 127.018 117.189C126.282 116.943 125.679 116.613 125.21 116.197L125.946 114.933C126.319 115.285 126.804 115.573 127.402 115.797C127.999 116.021 128.634 116.133 129.306 116.133C130.159 116.133 130.815 115.951 131.274 115.589C131.732 115.226 131.962 114.741 131.962 114.133C131.962 113.717 131.86 113.354 131.658 113.045C131.455 112.735 131.103 112.501 130.602 112.341C130.111 112.17 129.434 112.085 128.57 112.085H126.026L126.618 106.229H132.938V107.621H127.21L128.042 106.837L127.578 111.461L126.746 110.693H128.906C130.026 110.693 130.927 110.837 131.61 111.125C132.292 111.413 132.788 111.813 133.098 112.325C133.407 112.826 133.562 113.407 133.562 114.069C133.562 114.709 133.407 115.295 133.098 115.829C132.788 116.351 132.319 116.773 131.69 117.093C131.071 117.402 130.282 117.557 129.322 117.557ZM135.037 113.701V112.373H139.341V113.701H135.037ZM144.65 106.101C145.663 106.101 146.517 106.319 147.21 106.757C147.914 107.194 148.447 107.829 148.81 108.661C149.173 109.482 149.354 110.49 149.354 111.685C149.354 112.954 149.13 114.026 148.682 114.901C148.234 115.775 147.615 116.437 146.826 116.885C146.037 117.333 145.114 117.557 144.058 117.557C143.535 117.557 143.029 117.503 142.538 117.397C142.058 117.29 141.637 117.125 141.274 116.901L141.882 115.653C142.181 115.845 142.511 115.983 142.874 116.069C143.247 116.143 143.637 116.181 144.042 116.181C145.173 116.181 146.074 115.829 146.746 115.125C147.418 114.41 147.754 113.354 147.754 111.957C147.754 111.733 147.743 111.466 147.722 111.157C147.701 110.847 147.653 110.543 147.578 110.245L148.106 110.789C147.957 111.279 147.706 111.695 147.354 112.037C147.013 112.367 146.597 112.618 146.106 112.789C145.626 112.949 145.098 113.029 144.522 113.029C143.786 113.029 143.13 112.89 142.554 112.613C141.978 112.335 141.525 111.946 141.194 111.445C140.863 110.933 140.698 110.33 140.698 109.637C140.698 108.911 140.869 108.287 141.21 107.765C141.562 107.231 142.037 106.821 142.634 106.533C143.242 106.245 143.914 106.101 144.65 106.101ZM144.714 107.397C144.234 107.397 143.807 107.487 143.434 107.669C143.061 107.85 142.767 108.101 142.554 108.421C142.351 108.741 142.25 109.125 142.25 109.573C142.25 110.234 142.479 110.762 142.938 111.157C143.397 111.541 144.015 111.733 144.794 111.733C145.306 111.733 145.754 111.637 146.138 111.445C146.533 111.253 146.837 110.991 147.05 110.661C147.274 110.33 147.386 109.962 147.386 109.557C147.386 109.162 147.285 108.805 147.082 108.485C146.879 108.165 146.581 107.903 146.186 107.701C145.791 107.498 145.301 107.397 144.714 107.397ZM155.261 117.557C154.354 117.557 153.57 117.423 152.909 117.157C152.248 116.89 151.736 116.511 151.373 116.021C151.01 115.519 150.829 114.933 150.829 114.261C150.829 113.599 151 113.039 151.341 112.581C151.693 112.111 152.2 111.759 152.861 111.525C153.522 111.279 154.322 111.157 155.261 111.157C156.2 111.157 157 111.279 157.661 111.525C158.333 111.759 158.845 112.111 159.197 112.581C159.549 113.05 159.725 113.61 159.725 114.261C159.725 114.933 159.544 115.519 159.181 116.021C158.818 116.511 158.301 116.89 157.629 117.157C156.957 117.423 156.168 117.557 155.261 117.557ZM155.261 116.261C156.157 116.261 156.856 116.079 157.357 115.717C157.869 115.343 158.125 114.842 158.125 114.213C158.125 113.594 157.869 113.109 157.357 112.757C156.856 112.394 156.157 112.213 155.261 112.213C154.376 112.213 153.682 112.394 153.181 112.757C152.68 113.109 152.429 113.594 152.429 114.213C152.429 114.842 152.68 115.343 153.181 115.717C153.682 116.079 154.376 116.261 155.261 116.261ZM155.261 112.021C154.408 112.021 153.682 111.909 153.085 111.685C152.488 111.45 152.029 111.119 151.709 110.693C151.389 110.255 151.229 109.738 151.229 109.141C151.229 108.511 151.394 107.973 151.725 107.525C152.066 107.066 152.541 106.714 153.149 106.469C153.757 106.223 154.461 106.101 155.261 106.101C156.072 106.101 156.781 106.223 157.389 106.469C157.997 106.714 158.472 107.066 158.813 107.525C159.154 107.973 159.325 108.511 159.325 109.141C159.325 109.738 159.165 110.255 158.845 110.693C158.525 111.119 158.061 111.45 157.453 111.685C156.845 111.909 156.114 112.021 155.261 112.021ZM155.261 110.997C156.04 110.997 156.648 110.837 157.085 110.517C157.533 110.197 157.757 109.759 157.757 109.205C157.757 108.639 157.528 108.197 157.069 107.877C156.61 107.557 156.008 107.397 155.261 107.397C154.514 107.397 153.917 107.557 153.469 107.877C153.032 108.197 152.813 108.639 152.813 109.205C152.813 109.759 153.026 110.197 153.453 110.517C153.89 110.837 154.493 110.997 155.261 110.997Z" fill="white"/>
<path d="M13.776 174.229H15.376V185.429H13.776V174.229ZM7.344 185.429H5.744V174.229H7.344V185.429ZM13.92 180.437H7.184V179.045H13.92V180.437ZM23.813 185.429V183.637L23.733 183.301V180.245C23.733 179.594 23.541 179.093 23.157 178.741C22.7837 178.378 22.2183 178.197 21.461 178.197C20.9597 178.197 20.469 178.282 19.989 178.453C19.509 178.613 19.1037 178.831 18.773 179.109L18.133 177.957C18.5703 177.605 19.093 177.338 19.701 177.157C20.3197 176.965 20.965 176.869 21.637 176.869C22.7997 176.869 23.6957 177.151 24.325 177.717C24.9543 178.282 25.269 179.146 25.269 180.309V185.429H23.813ZM21.029 185.525C20.3997 185.525 19.845 185.418 19.365 185.205C18.8957 184.991 18.533 184.698 18.277 184.325C18.021 183.941 17.893 183.509 17.893 183.029C17.893 182.57 17.9997 182.154 18.213 181.781C18.437 181.407 18.7943 181.109 19.285 180.885C19.7863 180.661 20.4583 180.549 21.301 180.549H23.989V181.653H21.365C20.597 181.653 20.0797 181.781 19.813 182.037C19.5463 182.293 19.413 182.602 19.413 182.965C19.413 183.381 19.5783 183.717 19.909 183.973C20.2397 184.218 20.6983 184.341 21.285 184.341C21.861 184.341 22.3623 184.213 22.789 183.957C23.2263 183.701 23.541 183.327 23.733 182.837L24.037 183.893C23.8343 184.394 23.477 184.794 22.965 185.093C22.453 185.381 21.8077 185.525 21.029 185.525ZM28.0349 185.429V176.949H35.8909V185.429H34.3549V177.909L34.7229 178.293H29.2029L29.5709 177.909V185.429H28.0349ZM38.863 185.429V176.949H40.399V183.125L45.599 176.949H46.991V185.429H45.455V179.253L40.271 185.429H38.863ZM55.6044 184.085L55.2524 184.485V176.949H56.7884V184.485L56.4044 184.085H60.8844L60.5164 184.485V176.949H62.0524V185.429H49.9724V176.949H51.5084V184.485L51.1404 184.085H55.6044ZM65.0349 185.429V176.949H66.5709V183.125L71.7709 176.949H73.1629V185.429H71.6269V179.253L66.4429 185.429H65.0349ZM77.8243 185.429V177.893L78.2083 178.293H74.7203V176.949H82.4643V178.293H78.9923L79.3602 177.893V185.429H77.8243ZM87.4359 185.525C86.5292 185.525 85.7292 185.338 85.0359 184.965C84.3532 184.591 83.8199 184.079 83.4359 183.429C83.0625 182.778 82.8759 182.031 82.8759 181.189C82.8759 180.346 83.0572 179.599 83.4199 178.949C83.7932 178.298 84.2999 177.791 84.9399 177.429C85.5905 177.055 86.3212 176.869 87.1319 176.869C87.9532 176.869 88.6785 177.05 89.3079 177.413C89.9372 177.775 90.4279 178.287 90.7799 178.949C91.1425 179.599 91.3239 180.362 91.3239 181.237C91.3239 181.301 91.3185 181.375 91.3079 181.461C91.3079 181.546 91.3025 181.626 91.2919 181.701H84.0759V180.597H90.4919L89.8679 180.981C89.8785 180.437 89.7665 179.951 89.5319 179.525C89.2972 179.098 88.9719 178.767 88.5559 178.533C88.1505 178.287 87.6759 178.165 87.1319 178.165C86.5985 178.165 86.1239 178.287 85.7079 178.533C85.2919 178.767 84.9665 179.103 84.7319 179.541C84.4972 179.967 84.3799 180.458 84.3799 181.013V181.269C84.3799 181.834 84.5079 182.341 84.7639 182.789C85.0305 183.226 85.3985 183.567 85.8679 183.813C86.3372 184.058 86.8759 184.181 87.4839 184.181C87.9852 184.181 88.4385 184.095 88.8439 183.925C89.2599 183.754 89.6225 183.498 89.9319 183.157L90.7799 184.149C90.3959 184.597 89.9159 184.938 89.3399 185.173C88.7745 185.407 88.1399 185.525 87.4359 185.525ZM98.0036 185.429V176.949H99.5396V180.549H104.372V176.949H105.908V185.429H104.372V181.877H99.5396V185.429H98.0036ZM114.094 185.429V183.637L114.014 183.301V180.245C114.014 179.594 113.822 179.093 113.438 178.741C113.065 178.378 112.5 178.197 111.742 178.197C111.241 178.197 110.75 178.282 110.27 178.453C109.79 178.613 109.385 178.831 109.054 179.109L108.414 177.957C108.852 177.605 109.374 177.338 109.982 177.157C110.601 176.965 111.246 176.869 111.918 176.869C113.081 176.869 113.977 177.151 114.606 177.717C115.236 178.282 115.55 179.146 115.55 180.309V185.429H114.094ZM111.31 185.525C110.681 185.525 110.126 185.418 109.646 185.205C109.177 184.991 108.814 184.698 108.558 184.325C108.302 183.941 108.174 183.509 108.174 183.029C108.174 182.57 108.281 182.154 108.494 181.781C108.718 181.407 109.076 181.109 109.566 180.885C110.068 180.661 110.74 180.549 111.582 180.549H114.27V181.653H111.646C110.878 181.653 110.361 181.781 110.094 182.037C109.828 182.293 109.694 182.602 109.694 182.965C109.694 183.381 109.86 183.717 110.19 183.973C110.521 184.218 110.98 184.341 111.566 184.341C112.142 184.341 112.644 184.213 113.07 183.957C113.508 183.701 113.822 183.327 114.014 182.837L114.318 183.893C114.116 184.394 113.758 184.794 113.246 185.093C112.734 185.381 112.089 185.525 111.31 185.525ZM118.316 185.429V176.949H119.9L123.548 183.221H122.908L126.652 176.949H128.092V185.429H126.7V178.677L126.956 178.821L123.532 184.469H122.86L119.42 178.709L119.724 178.645V185.429H118.316ZM135.379 185.429V176.949H136.915V183.125L142.115 176.949H143.507V185.429H141.971V179.253L136.787 185.429H135.379ZM150.785 185.429V176.949H152.369L156.017 183.221H155.377L159.121 176.949H160.561V185.429H159.169V178.677L159.425 178.821L156.001 184.469H155.329L151.889 178.709L152.193 178.645V185.429H150.785ZM171.935 185.429V176.949H173.471V185.429H171.935ZM167.375 179.829C168.452 179.839 169.268 180.085 169.823 180.565C170.388 181.045 170.671 181.722 170.671 182.597C170.671 183.514 170.361 184.223 169.743 184.725C169.135 185.215 168.26 185.455 167.119 185.445L163.551 185.429V176.949H165.087V179.813L167.375 179.829ZM167.007 184.277C167.689 184.287 168.212 184.149 168.575 183.861C168.937 183.573 169.119 183.146 169.119 182.581C169.119 182.026 168.937 181.621 168.575 181.365C168.223 181.109 167.7 180.975 167.007 180.965L165.087 180.933V184.261L167.007 184.277ZM180.754 185.429V176.949H184.69C185.682 176.949 186.46 177.141 187.026 177.525C187.602 177.898 187.89 178.431 187.89 179.125C187.89 179.818 187.618 180.357 187.074 180.741C186.54 181.114 185.831 181.301 184.946 181.301L185.186 180.885C186.199 180.885 186.951 181.071 187.442 181.445C187.932 181.818 188.178 182.367 188.178 183.093C188.178 183.829 187.9 184.405 187.346 184.821C186.802 185.226 185.964 185.429 184.834 185.429H180.754ZM182.258 184.245H184.722C185.362 184.245 185.842 184.149 186.162 183.957C186.482 183.754 186.642 183.434 186.642 182.997C186.642 182.549 186.492 182.223 186.194 182.021C185.906 181.807 185.447 181.701 184.818 181.701H182.258V184.245ZM182.258 180.597H184.562C185.148 180.597 185.591 180.49 185.89 180.277C186.199 180.053 186.354 179.743 186.354 179.349C186.354 178.943 186.199 178.639 185.89 178.437C185.591 178.234 185.148 178.133 184.562 178.133H182.258V180.597ZM195.782 185.429V183.637L195.702 183.301V180.245C195.702 179.594 195.51 179.093 195.126 178.741C194.752 178.378 194.187 178.197 193.43 178.197C192.928 178.197 192.438 178.282 191.958 178.453C191.478 178.613 191.072 178.831 190.742 179.109L190.102 177.957C190.539 177.605 191.062 177.338 191.67 177.157C192.288 176.965 192.934 176.869 193.606 176.869C194.768 176.869 195.664 177.151 196.294 177.717C196.923 178.282 197.238 179.146 197.238 180.309V185.429H195.782ZM192.998 185.525C192.368 185.525 191.814 185.418 191.334 185.205C190.864 184.991 190.502 184.698 190.246 184.325C189.99 183.941 189.862 183.509 189.862 183.029C189.862 182.57 189.968 182.154 190.182 181.781C190.406 181.407 190.763 181.109 191.254 180.885C191.755 180.661 192.427 180.549 193.27 180.549H195.958V181.653H193.334C192.566 181.653 192.048 181.781 191.782 182.037C191.515 182.293 191.382 182.602 191.382 182.965C191.382 183.381 191.547 183.717 191.878 183.973C192.208 184.218 192.667 184.341 193.254 184.341C193.83 184.341 194.331 184.213 194.758 183.957C195.195 183.701 195.51 183.327 195.702 182.837L196.006 183.893C195.803 184.394 195.446 184.794 194.934 185.093C194.422 185.381 193.776 185.525 192.998 185.525ZM200.004 185.429V176.949H201.588L205.236 183.221H204.596L208.34 176.949H209.78V185.429H208.388V178.677L208.644 178.821L205.22 184.469H204.548L201.108 178.709L201.412 178.645V185.429H200.004ZM217.066 185.429V176.949H224.922V185.429H223.386V177.909L223.754 178.293H218.234L218.602 177.909V185.429H217.066ZM231.526 185.525C230.673 185.525 229.916 185.338 229.254 184.965C228.593 184.591 228.07 184.079 227.686 183.429C227.302 182.767 227.11 182.021 227.11 181.189C227.11 180.346 227.302 179.599 227.686 178.949C228.07 178.298 228.593 177.791 229.254 177.429C229.916 177.055 230.673 176.869 231.526 176.869C232.369 176.869 233.121 177.055 233.782 177.429C234.454 177.791 234.977 178.298 235.35 178.949C235.734 179.589 235.926 180.335 235.926 181.189C235.926 182.031 235.734 182.778 235.35 183.429C234.977 184.079 234.454 184.591 233.782 184.965C233.121 185.338 232.369 185.525 231.526 185.525ZM231.526 184.181C232.07 184.181 232.556 184.058 232.982 183.813C233.42 183.567 233.761 183.221 234.006 182.773C234.252 182.314 234.374 181.786 234.374 181.189C234.374 180.581 234.252 180.058 234.006 179.621C233.761 179.173 233.42 178.826 232.982 178.581C232.556 178.335 232.07 178.213 231.526 178.213C230.982 178.213 230.497 178.335 230.07 178.581C229.644 178.826 229.302 179.173 229.046 179.621C228.79 180.058 228.662 180.581 228.662 181.189C228.662 181.786 228.79 182.314 229.046 182.773C229.302 183.221 229.644 183.567 230.07 183.813C230.497 184.058 230.982 184.181 231.526 184.181ZM238.144 185.429V176.949H239.728L243.376 183.221H242.736L246.48 176.949H247.92V185.429H246.528V178.677L246.784 178.821L243.36 184.469H242.688L239.248 178.709L239.552 178.645V185.429H238.144ZM254.542 185.525C253.689 185.525 252.931 185.338 252.27 184.965C251.609 184.591 251.086 184.079 250.702 183.429C250.318 182.767 250.126 182.021 250.126 181.189C250.126 180.346 250.318 179.599 250.702 178.949C251.086 178.298 251.609 177.791 252.27 177.429C252.931 177.055 253.689 176.869 254.542 176.869C255.385 176.869 256.137 177.055 256.798 177.429C257.47 177.791 257.993 178.298 258.366 178.949C258.75 179.589 258.942 180.335 258.942 181.189C258.942 182.031 258.75 182.778 258.366 183.429C257.993 184.079 257.47 184.591 256.798 184.965C256.137 185.338 255.385 185.525 254.542 185.525ZM254.542 184.181C255.086 184.181 255.571 184.058 255.998 183.813C256.435 183.567 256.777 183.221 257.022 182.773C257.267 182.314 257.39 181.786 257.39 181.189C257.39 180.581 257.267 180.058 257.022 179.621C256.777 179.173 256.435 178.826 255.998 178.581C255.571 178.335 255.086 178.213 254.542 178.213C253.998 178.213 253.513 178.335 253.086 178.581C252.659 178.826 252.318 179.173 252.062 179.621C251.806 180.058 251.678 180.581 251.678 181.189C251.678 181.786 251.806 182.314 252.062 182.773C252.318 183.221 252.659 183.567 253.086 183.813C253.513 184.058 253.998 184.181 254.542 184.181ZM270.943 185.429L268.239 181.301L269.503 180.533L272.767 185.429H270.943ZM266.479 181.845V180.533H269.231V181.845H266.479ZM269.647 181.365L268.191 181.173L270.895 176.949H272.543L269.647 181.365ZM261.423 185.429H259.599L262.847 180.533L264.111 181.301L261.423 185.429ZM266.943 185.429H265.407V176.949H266.943V185.429ZM265.871 181.845H263.135V180.533H265.871V181.845ZM262.719 181.365L259.823 176.949H261.455L264.159 181.173L262.719 181.365ZM277.952 185.525C277.045 185.525 276.245 185.338 275.552 184.965C274.869 184.591 274.336 184.079 273.952 183.429C273.578 182.778 273.392 182.031 273.392 181.189C273.392 180.346 273.573 179.599 273.936 178.949C274.309 178.298 274.816 177.791 275.456 177.429C276.106 177.055 276.837 176.869 277.648 176.869C278.469 176.869 279.194 177.05 279.824 177.413C280.453 177.775 280.944 178.287 281.296 178.949C281.658 179.599 281.84 180.362 281.84 181.237C281.84 181.301 281.834 181.375 281.824 181.461C281.824 181.546 281.818 181.626 281.808 181.701H274.592V180.597H281.008L280.384 180.981C280.394 180.437 280.282 179.951 280.048 179.525C279.813 179.098 279.488 178.767 279.072 178.533C278.666 178.287 278.192 178.165 277.648 178.165C277.114 178.165 276.64 178.287 276.224 178.533C275.808 178.767 275.482 179.103 275.248 179.541C275.013 179.967 274.896 180.458 274.896 181.013V181.269C274.896 181.834 275.024 182.341 275.28 182.789C275.546 183.226 275.914 183.567 276.384 183.813C276.853 184.058 277.392 184.181 278 184.181C278.501 184.181 278.954 184.095 279.36 183.925C279.776 183.754 280.138 183.498 280.448 183.157L281.296 184.149C280.912 184.597 280.432 184.938 279.856 185.173C279.29 185.407 278.656 185.525 277.952 185.525ZM284.222 185.429V176.949H285.806L289.454 183.221H288.814L292.558 176.949H293.998V185.429H292.606V178.677L292.862 178.821L289.438 184.469H288.766L285.326 178.709L285.63 178.645V185.429H284.222Z" fill="white"/>
<rect x="4" y="197.429" width="194" height="50" rx="7" fill="#F8B806"/>
<g clip-path="url(#clip1_132_2108)">
<path d="M39.1282 214.824C39.1312 214.759 39.1331 214.692 39.1331 214.626C39.1331 211.955 36.83 209.641 33.9885 209.641C31.9113 209.641 30.123 210.948 29.3103 212.615H29.3091C28.4971 210.949 26.7087 209.641 24.6309 209.641C21.7899 209.641 19.4863 211.956 19.4863 214.626C19.4863 214.692 19.4887 214.759 19.4918 214.824C19.4918 214.824 19.2006 217.997 22.8108 221.461C24.452 223.069 26.288 224.597 29.3091 227C32.3302 224.598 34.1662 223.069 35.8074 221.461C39.4176 217.997 39.127 214.824 39.127 214.824H39.1282Z" stroke="white" stroke-width="2" stroke-linecap="round" stroke-linejoin="round"/>
<path d="M16.7399 226.919C16.7399 226.919 15.6715 224.861 14.9842 224.309C14.2976 223.758 14.6024 222.986 15.8621 223.17C17.1211 223.354 18.8383 225.523 19.6782 226.516C20.5176 227.508 21.4718 227.582 21.4718 227.582C24.5629 228.023 25.4699 228.234 27.1617 230.807C29.3364 234.115 27.6962 235.659 25.4066 235.512C23.117 235.365 21.8958 234.262 21.8958 234.262C21.8958 234.262 18.6477 232.287 17.3887 231.736C16.1296 231.184 13.3434 225.56 12.6946 224.053C12.0459 222.546 12.5419 217.179 13.4576 217.216C14.3733 217.252 14.8694 217.767 14.8694 219.715C14.8694 221.664 15.06 222.582 15.06 222.582" stroke="white" stroke-width="2" stroke-linecap="round" stroke-linejoin="round"/>
<path d="M41.8798 226.919C41.8798 226.919 42.9482 224.861 43.6349 224.309C44.3216 223.758 44.0167 222.986 42.757 223.17C41.498 223.354 39.7806 225.523 38.9406 226.516C38.1012 227.508 37.147 227.582 37.147 227.582C34.0558 228.023 33.1487 228.234 31.457 230.807C29.2821 234.115 30.9224 235.659 33.2121 235.512C35.5018 235.365 36.723 234.262 36.723 234.262C36.723 234.262 39.9713 232.287 41.2303 231.736C42.4894 231.184 45.2758 225.56 45.924 224.053C46.5727 222.546 46.0767 217.179 45.1609 217.216C44.2452 217.252 43.7491 217.767 43.7491 219.715C43.7491 221.664 43.5585 222.582 43.5585 222.582" stroke="white" stroke-width="2" stroke-linecap="round" stroke-linejoin="round"/>
</g>
<path d="M68.752 218.557C67.8987 218.557 67.1093 218.418 66.384 218.141C65.6693 217.853 65.0453 217.453 64.512 216.941C63.9893 216.418 63.5787 215.81 63.28 215.117C62.9813 214.423 62.832 213.661 62.832 212.829C62.832 211.997 62.9813 211.234 63.28 210.541C63.5787 209.847 63.9947 209.245 64.528 208.733C65.0613 208.21 65.6853 207.81 66.4 207.533C67.1253 207.245 67.9147 207.101 68.768 207.101C69.632 207.101 70.4267 207.25 71.152 207.549C71.888 207.837 72.512 208.269 73.024 208.845L71.984 209.853C71.5573 209.405 71.0773 209.074 70.544 208.861C70.0107 208.637 69.44 208.525 68.832 208.525C68.2027 208.525 67.616 208.631 67.072 208.845C66.5387 209.058 66.0747 209.357 65.68 209.741C65.2853 210.125 64.976 210.583 64.752 211.117C64.5387 211.639 64.432 212.21 64.432 212.829C64.432 213.447 64.5387 214.023 64.752 214.557C64.976 215.079 65.2853 215.533 65.68 215.917C66.0747 216.301 66.5387 216.599 67.072 216.813C67.616 217.026 68.2027 217.133 68.832 217.133C69.44 217.133 70.0107 217.026 70.544 216.813C71.0773 216.589 71.5573 216.247 71.984 215.789L73.024 216.797C72.512 217.373 71.888 217.81 71.152 218.109C70.4267 218.407 69.6267 218.557 68.752 218.557ZM73.1894 218.413L73.2854 217.117C73.36 217.127 73.4294 217.138 73.4934 217.149C73.5574 217.159 73.616 217.165 73.6694 217.165C74.0107 217.165 74.2774 217.047 74.4694 216.813C74.672 216.578 74.8214 216.269 74.9174 215.885C75.0134 215.49 75.0827 215.047 75.1254 214.557C75.168 214.066 75.2 213.575 75.2214 213.085L75.3654 209.949H81.8774V218.429H80.3414V210.845L80.7094 211.293H76.3574L76.7094 210.829L76.5974 213.181C76.5654 213.927 76.5067 214.626 76.4214 215.277C76.336 215.927 76.2027 216.498 76.0214 216.989C75.8507 217.479 75.6107 217.863 75.3014 218.141C75.0027 218.418 74.6134 218.557 74.1334 218.557C73.9947 218.557 73.8454 218.541 73.6854 218.509C73.536 218.487 73.3707 218.455 73.1894 218.413ZM85.2794 221.629C84.874 221.629 84.4794 221.559 84.0954 221.421C83.7114 221.293 83.3807 221.101 83.1034 220.845L83.7594 219.693C83.9727 219.895 84.2074 220.05 84.4634 220.157C84.7194 220.263 84.9914 220.317 85.2794 220.317C85.6527 220.317 85.962 220.221 86.2074 220.029C86.4527 219.837 86.682 219.495 86.8954 219.005L87.4234 217.837L87.5834 217.645L90.9114 209.949H92.4154L88.3034 219.277C88.058 219.874 87.7807 220.343 87.4714 220.685C87.1727 221.026 86.842 221.266 86.4794 221.405C86.1167 221.554 85.7167 221.629 85.2794 221.629ZM87.2954 218.701L83.4234 209.949H85.0234L88.3194 217.501L87.2954 218.701ZM103.568 218.429L100.864 214.301L102.128 213.533L105.392 218.429H103.568ZM99.1036 214.845V213.533H101.856V214.845H99.1036ZM102.272 214.365L100.816 214.173L103.52 209.949H105.168L102.272 214.365ZM94.0476 218.429H92.2236L95.4716 213.533L96.7356 214.301L94.0476 218.429ZM99.5676 218.429H98.0316V209.949H99.5676V218.429ZM98.4956 214.845H95.7596V213.533H98.4956V214.845ZM95.3436 214.365L92.4476 209.949H94.0796L96.7836 214.173L95.3436 214.365ZM110.877 218.557C110.173 218.557 109.549 218.445 109.005 218.221C108.471 217.997 108.013 217.666 107.629 217.229C107.245 216.781 106.951 216.221 106.749 215.549C106.557 214.866 106.461 214.066 106.461 213.149C106.461 212.423 106.525 211.773 106.653 211.197C106.781 210.621 106.962 210.109 107.197 209.661C107.442 209.213 107.741 208.823 108.093 208.493C108.455 208.162 108.861 207.89 109.309 207.677C109.767 207.453 110.269 207.282 110.813 207.165L114.685 206.301L114.909 207.725L111.341 208.493C111.127 208.535 110.871 208.599 110.573 208.685C110.274 208.77 109.97 208.903 109.661 209.085C109.351 209.255 109.063 209.495 108.797 209.805C108.53 210.114 108.317 210.519 108.157 211.021C107.997 211.511 107.917 212.119 107.917 212.845C107.917 213.047 107.922 213.202 107.933 213.309C107.943 213.415 107.954 213.522 107.965 213.629C107.986 213.735 108.002 213.895 108.013 214.109L107.373 213.453C107.543 212.866 107.815 212.354 108.189 211.917C108.562 211.479 109.01 211.143 109.533 210.909C110.066 210.663 110.647 210.541 111.277 210.541C112.066 210.541 112.765 210.711 113.373 211.053C113.991 211.394 114.477 211.863 114.829 212.461C115.181 213.058 115.357 213.741 115.357 214.509C115.357 215.287 115.17 215.986 114.797 216.605C114.434 217.213 113.917 217.693 113.245 218.045C112.573 218.386 111.783 218.557 110.877 218.557ZM111.021 217.277C111.565 217.277 112.045 217.159 112.461 216.925C112.877 216.679 113.202 216.354 113.437 215.949C113.671 215.533 113.789 215.069 113.789 214.557C113.789 214.045 113.671 213.591 113.437 213.197C113.202 212.802 112.877 212.493 112.461 212.269C112.045 212.034 111.554 211.917 110.989 211.917C110.455 211.917 109.975 212.029 109.549 212.253C109.122 212.466 108.791 212.77 108.557 213.165C108.322 213.549 108.205 213.997 108.205 214.509C108.205 215.021 108.322 215.49 108.557 215.917C108.802 216.333 109.133 216.663 109.549 216.909C109.975 217.154 110.466 217.277 111.021 217.277ZM122.672 218.429V216.637L122.592 216.301V213.245C122.592 212.594 122.4 212.093 122.016 211.741C121.643 211.378 121.078 211.197 120.32 211.197C119.819 211.197 119.328 211.282 118.848 211.453C118.368 211.613 117.963 211.831 117.632 212.109L116.992 210.957C117.43 210.605 117.952 210.338 118.56 210.157C119.179 209.965 119.824 209.869 120.496 209.869C121.659 209.869 122.555 210.151 123.184 210.717C123.814 211.282 124.128 212.146 124.128 213.309V218.429H122.672ZM119.888 218.525C119.259 218.525 118.704 218.418 118.224 218.205C117.755 217.991 117.392 217.698 117.136 217.325C116.88 216.941 116.752 216.509 116.752 216.029C116.752 215.57 116.859 215.154 117.072 214.781C117.296 214.407 117.654 214.109 118.144 213.885C118.646 213.661 119.318 213.549 120.16 213.549H122.848V214.653H120.224C119.456 214.653 118.939 214.781 118.672 215.037C118.406 215.293 118.272 215.602 118.272 215.965C118.272 216.381 118.438 216.717 118.768 216.973C119.099 217.218 119.558 217.341 120.144 217.341C120.72 217.341 121.222 217.213 121.648 216.957C122.086 216.701 122.4 216.327 122.592 215.837L122.896 216.893C122.694 217.394 122.336 217.794 121.824 218.093C121.312 218.381 120.667 218.525 119.888 218.525ZM133.671 218.541C133.031 218.541 132.402 218.461 131.783 218.301C131.175 218.13 130.631 217.89 130.151 217.581L130.615 216.413C131.02 216.669 131.484 216.871 132.007 217.021C132.53 217.159 133.058 217.229 133.591 217.229C134.082 217.229 134.503 217.17 134.855 217.053C135.218 216.935 135.495 216.775 135.687 216.573C135.879 216.359 135.975 216.114 135.975 215.837C135.975 215.442 135.799 215.138 135.447 214.925C135.095 214.711 134.604 214.605 133.975 214.605H132.439V213.501H133.879C134.252 213.501 134.578 213.458 134.855 213.373C135.132 213.287 135.346 213.159 135.495 212.989C135.655 212.807 135.735 212.599 135.735 212.365C135.735 212.109 135.644 211.89 135.463 211.709C135.282 211.527 135.026 211.389 134.695 211.293C134.375 211.197 133.996 211.149 133.559 211.149C133.132 211.159 132.695 211.218 132.247 211.325C131.81 211.431 131.362 211.597 130.903 211.821L130.487 210.621C130.999 210.375 131.5 210.189 131.991 210.061C132.492 209.922 132.988 209.847 133.479 209.837C134.215 209.815 134.871 209.901 135.447 210.093C136.023 210.274 136.476 210.541 136.807 210.893C137.148 211.245 137.319 211.661 137.319 212.141C137.319 212.546 137.191 212.909 136.935 213.229C136.679 213.538 136.338 213.783 135.911 213.965C135.484 214.146 134.994 214.237 134.439 214.237L134.503 213.869C135.452 213.869 136.199 214.055 136.743 214.429C137.287 214.802 137.559 215.309 137.559 215.949C137.559 216.461 137.388 216.914 137.047 217.309C136.706 217.693 136.242 217.997 135.655 218.221C135.079 218.434 134.418 218.541 133.671 218.541ZM145.094 218.429V216.637L145.014 216.301V213.245C145.014 212.594 144.822 212.093 144.438 211.741C144.065 211.378 143.5 211.197 142.742 211.197C142.241 211.197 141.75 211.282 141.27 211.453C140.79 211.613 140.385 211.831 140.054 212.109L139.414 210.957C139.852 210.605 140.374 210.338 140.982 210.157C141.601 209.965 142.246 209.869 142.918 209.869C144.081 209.869 144.977 210.151 145.606 210.717C146.236 211.282 146.55 212.146 146.55 213.309V218.429H145.094ZM142.31 218.525C141.681 218.525 141.126 218.418 140.646 218.205C140.177 217.991 139.814 217.698 139.558 217.325C139.302 216.941 139.174 216.509 139.174 216.029C139.174 215.57 139.281 215.154 139.494 214.781C139.718 214.407 140.076 214.109 140.566 213.885C141.068 213.661 141.74 213.549 142.582 213.549H145.27V214.653H142.646C141.878 214.653 141.361 214.781 141.094 215.037C140.828 215.293 140.694 215.602 140.694 215.965C140.694 216.381 140.86 216.717 141.19 216.973C141.521 217.218 141.98 217.341 142.566 217.341C143.142 217.341 143.644 217.213 144.07 216.957C144.508 216.701 144.822 216.327 145.014 215.837L145.318 216.893C145.116 217.394 144.758 217.794 144.246 218.093C143.734 218.381 143.089 218.525 142.31 218.525ZM153.236 218.557C152.532 218.557 151.908 218.445 151.364 218.221C150.831 217.997 150.372 217.666 149.988 217.229C149.604 216.781 149.311 216.221 149.108 215.549C148.916 214.866 148.82 214.066 148.82 213.149C148.82 212.423 148.884 211.773 149.012 211.197C149.14 210.621 149.321 210.109 149.556 209.661C149.801 209.213 150.1 208.823 150.452 208.493C150.815 208.162 151.22 207.89 151.668 207.677C152.127 207.453 152.628 207.282 153.172 207.165L157.044 206.301L157.268 207.725L153.7 208.493C153.487 208.535 153.231 208.599 152.932 208.685C152.633 208.77 152.329 208.903 152.02 209.085C151.711 209.255 151.423 209.495 151.156 209.805C150.889 210.114 150.676 210.519 150.516 211.021C150.356 211.511 150.276 212.119 150.276 212.845C150.276 213.047 150.281 213.202 150.292 213.309C150.303 213.415 150.313 213.522 150.324 213.629C150.345 213.735 150.361 213.895 150.372 214.109L149.732 213.453C149.903 212.866 150.175 212.354 150.548 211.917C150.921 211.479 151.369 211.143 151.892 210.909C152.425 210.663 153.007 210.541 153.636 210.541C154.425 210.541 155.124 210.711 155.732 211.053C156.351 211.394 156.836 211.863 157.188 212.461C157.54 213.058 157.716 213.741 157.716 214.509C157.716 215.287 157.529 215.986 157.156 216.605C156.793 217.213 156.276 217.693 155.604 218.045C154.932 218.386 154.143 218.557 153.236 218.557ZM153.38 217.277C153.924 217.277 154.404 217.159 154.82 216.925C155.236 216.679 155.561 216.354 155.796 215.949C156.031 215.533 156.148 215.069 156.148 214.557C156.148 214.045 156.031 213.591 155.796 213.197C155.561 212.802 155.236 212.493 154.82 212.269C154.404 212.034 153.913 211.917 153.348 211.917C152.815 211.917 152.335 212.029 151.908 212.253C151.481 212.466 151.151 212.77 150.916 213.165C150.681 213.549 150.564 213.997 150.564 214.509C150.564 215.021 150.681 215.49 150.916 215.917C151.161 216.333 151.492 216.663 151.908 216.909C152.335 217.154 152.825 217.277 153.38 217.277ZM163.542 218.525C162.689 218.525 161.931 218.338 161.27 217.965C160.609 217.591 160.086 217.079 159.702 216.429C159.318 215.767 159.126 215.021 159.126 214.189C159.126 213.346 159.318 212.599 159.702 211.949C160.086 211.298 160.609 210.791 161.27 210.429C161.931 210.055 162.689 209.869 163.542 209.869C164.385 209.869 165.137 210.055 165.798 210.429C166.47 210.791 166.993 211.298 167.366 211.949C167.75 212.589 167.942 213.335 167.942 214.189C167.942 215.031 167.75 215.778 167.366 216.429C166.993 217.079 166.47 217.591 165.798 217.965C165.137 218.338 164.385 218.525 163.542 218.525ZM163.542 217.181C164.086 217.181 164.571 217.058 164.998 216.813C165.435 216.567 165.777 216.221 166.022 215.773C166.267 215.314 166.39 214.786 166.39 214.189C166.39 213.581 166.267 213.058 166.022 212.621C165.777 212.173 165.435 211.826 164.998 211.581C164.571 211.335 164.086 211.213 163.542 211.213C162.998 211.213 162.513 211.335 162.086 211.581C161.659 211.826 161.318 212.173 161.062 212.621C160.806 213.058 160.678 213.581 160.678 214.189C160.678 214.786 160.806 215.314 161.062 215.773C161.318 216.221 161.659 216.567 162.086 216.813C162.513 217.058 162.998 217.181 163.542 217.181ZM171.527 218.429V210.893L171.911 211.293H168.423V209.949H176.167V211.293H172.695L173.063 210.893V218.429H171.527ZM186.122 218.429V209.949H187.658V218.429H186.122ZM181.562 212.829C182.639 212.839 183.455 213.085 184.01 213.565C184.575 214.045 184.858 214.722 184.858 215.597C184.858 216.514 184.549 217.223 183.93 217.725C183.322 218.215 182.447 218.455 181.306 218.445L177.738 218.429V209.949H179.274V212.813L181.562 212.829ZM181.194 217.277C181.877 217.287 182.399 217.149 182.762 216.861C183.125 216.573 183.306 216.146 183.306 215.581C183.306 215.026 183.125 214.621 182.762 214.365C182.41 214.109 181.887 213.975 181.194 213.965L179.274 213.933V217.261L181.194 217.277ZM67.12 238.525C66.2667 238.525 65.5093 238.338 64.848 237.965C64.1867 237.591 63.664 237.079 63.28 236.429C62.896 235.767 62.704 235.021 62.704 234.189C62.704 233.346 62.896 232.599 63.28 231.949C63.664 231.298 64.1867 230.791 64.848 230.429C65.5093 230.055 66.2667 229.869 67.12 229.869C67.9627 229.869 68.7147 230.055 69.376 230.429C70.048 230.791 70.5707 231.298 70.944 231.949C71.328 232.589 71.52 233.335 71.52 234.189C71.52 235.031 71.328 235.778 70.944 236.429C70.5707 237.079 70.048 237.591 69.376 237.965C68.7147 238.338 67.9627 238.525 67.12 238.525ZM67.12 237.181C67.664 237.181 68.1493 237.058 68.576 236.813C69.0133 236.567 69.3547 236.221 69.6 235.773C69.8453 235.314 69.968 234.786 69.968 234.189C69.968 233.581 69.8453 233.058 69.6 232.621C69.3547 232.173 69.0133 231.826 68.576 231.581C68.1493 231.335 67.664 231.213 67.12 231.213C66.576 231.213 66.0907 231.335 65.664 231.581C65.2373 231.826 64.896 232.173 64.64 232.621C64.384 233.058 64.256 233.581 64.256 234.189C64.256 234.786 64.384 235.314 64.64 235.773C64.896 236.221 65.2373 236.567 65.664 236.813C66.0907 237.058 66.576 237.181 67.12 237.181ZM84.1789 238.429L80.8989 234.301L82.1629 233.533L85.9869 238.429H84.1789ZM78.0349 238.429V229.949H79.5709V238.429H78.0349ZM79.1069 234.845V233.533H81.9069V234.845H79.1069ZM82.2909 234.365L80.8669 234.173L84.1149 229.949H85.7629L82.2909 234.365ZM86.1894 238.413L86.2854 237.117C86.36 237.127 86.4294 237.138 86.4934 237.149C86.5574 237.159 86.616 237.165 86.6694 237.165C87.0107 237.165 87.2774 237.047 87.4694 236.813C87.672 236.578 87.8214 236.269 87.9174 235.885C88.0134 235.49 88.0827 235.047 88.1254 234.557C88.168 234.066 88.2 233.575 88.2214 233.085L88.3654 229.949H94.8774V238.429H93.3414V230.845L93.7094 231.293H89.3574L89.7094 230.829L89.5974 233.181C89.5654 233.927 89.5067 234.626 89.4214 235.277C89.336 235.927 89.2027 236.498 89.0214 236.989C88.8507 237.479 88.6107 237.863 88.3014 238.141C88.0027 238.418 87.6134 238.557 87.1334 238.557C86.9947 238.557 86.8454 238.541 86.6854 238.509C86.536 238.487 86.3707 238.455 86.1894 238.413ZM97.8474 238.429V229.949H99.3834V236.125L104.583 229.949H105.975V238.429H104.439V232.253L99.2554 238.429H97.8474ZM112.733 238.525C111.826 238.525 111.026 238.338 110.333 237.965C109.65 237.591 109.117 237.079 108.733 236.429C108.359 235.778 108.173 235.031 108.173 234.189C108.173 233.346 108.354 232.599 108.717 231.949C109.09 231.298 109.597 230.791 110.237 230.429C110.887 230.055 111.618 229.869 112.429 229.869C113.25 229.869 113.975 230.05 114.605 230.413C115.234 230.775 115.725 231.287 116.077 231.949C116.439 232.599 116.621 233.362 116.621 234.237C116.621 234.301 116.615 234.375 116.605 234.461C116.605 234.546 116.599 234.626 116.589 234.701H109.373V233.597H115.789L115.165 233.981C115.175 233.437 115.063 232.951 114.829 232.525C114.594 232.098 114.269 231.767 113.853 231.533C113.447 231.287 112.973 231.165 112.429 231.165C111.895 231.165 111.421 231.287 111.005 231.533C110.589 231.767 110.263 232.103 110.029 232.541C109.794 232.967 109.677 233.458 109.677 234.013V234.269C109.677 234.834 109.805 235.341 110.061 235.789C110.327 236.226 110.695 236.567 111.165 236.813C111.634 237.058 112.173 237.181 112.781 237.181C113.282 237.181 113.735 237.095 114.141 236.925C114.557 236.754 114.919 236.498 115.229 236.157L116.077 237.149C115.693 237.597 115.213 237.938 114.637 238.173C114.071 238.407 113.437 238.525 112.733 238.525ZM119.004 238.429V229.949H120.54V233.549H125.372V229.949H126.908V238.429H125.372V234.877H120.54V238.429H119.004ZM131.574 238.429V230.893L131.958 231.293H128.47V229.949H136.214V231.293H132.742L133.11 230.893V238.429H131.574ZM142.985 238.429V236.637L142.905 236.301V233.245C142.905 232.594 142.713 232.093 142.329 231.741C141.956 231.378 141.39 231.197 140.633 231.197C140.132 231.197 139.641 231.282 139.161 231.453C138.681 231.613 138.276 231.831 137.945 232.109L137.305 230.957C137.742 230.605 138.265 230.338 138.873 230.157C139.492 229.965 140.137 229.869 140.809 229.869C141.972 229.869 142.868 230.151 143.497 230.717C144.126 231.282 144.441 232.146 144.441 233.309V238.429H142.985ZM140.201 238.525C139.572 238.525 139.017 238.418 138.537 238.205C138.068 237.991 137.705 237.698 137.449 237.325C137.193 236.941 137.065 236.509 137.065 236.029C137.065 235.57 137.172 235.154 137.385 234.781C137.609 234.407 137.966 234.109 138.457 233.885C138.958 233.661 139.63 233.549 140.473 233.549H143.161V234.653H140.537C139.769 234.653 139.252 234.781 138.985 235.037C138.718 235.293 138.585 235.602 138.585 235.965C138.585 236.381 138.75 236.717 139.081 236.973C139.412 237.218 139.87 237.341 140.457 237.341C141.033 237.341 141.534 237.213 141.961 236.957C142.398 236.701 142.713 236.327 142.905 235.837L143.209 236.893C143.006 237.394 142.649 237.794 142.137 238.093C141.625 238.381 140.98 238.525 140.201 238.525ZM145.863 238.429L149.511 233.693L149.495 234.477L146.023 229.949H147.735L150.391 233.437H149.735L152.391 229.949H154.071L150.551 234.509L150.567 233.693L154.247 238.429H152.503L149.703 234.717L150.327 234.813L147.575 238.429H145.863Z" fill="white"/>
</g>
<defs>
<filter id="filter0_d_132_2108" x="0" y="0" width="300" height="255.429" filterUnits="userSpaceOnUse" color-interpolation-filters="sRGB">
<feFlood flood-opacity="0" result="BackgroundImageFix"/>
<feColorMatrix in="SourceAlpha" type="matrix" values="0 0 0 0 0 0 0 0 0 0 0 0 0 0 0 0 0 0 127 0" result="hardAlpha"/>
<feOffset dy="4"/>
<feGaussianBlur stdDeviation="2"/>
<feComposite in2="hardAlpha" operator="out"/>
<feColorMatrix type="matrix" values="0 0 0 0 0 0 0 0 0 0 0 0 0 0 0 0 0 0 0.25 0"/>
<feBlend mode="normal" in2="BackgroundImageFix" result="effect1_dropShadow_132_2108"/>
<feBlend mode="normal" in="SourceGraphic" in2="effect1_dropShadow_132_2108" result="shape"/>
</filter>
<clipPath id="clip0_132_2108">
<rect width="208" height="85.4286" fill="white" transform="translate(4)"/>
</clipPath>
<clipPath id="clip1_132_2108">
<rect width="35" height="27" fill="white" transform="translate(12 208.929)"/>
</clipPath>
</defs>
</svg>
