<svg width="116" height="20" viewBox="0 0 116 20" fill="none" xmlns="http://www.w3.org/2000/svg">
<g clip-path="url(#clip0_379_1116)">
<path d="M9.07088 1.05692C9.41462 0.240465 10.5854 0.240466 10.9291 1.05693L12.9579 5.87581C13.1029 6.22001 13.4306 6.45519 13.8067 6.48498L19.0727 6.90206C19.9649 6.97272 20.3267 8.07271 19.6469 8.64798L15.6348 12.0432C15.3482 12.2858 15.223 12.6664 15.3106 13.0289L16.5363 18.1056C16.744 18.9657 15.7969 19.6456 15.033 19.1847L10.5245 16.4641C10.2025 16.2698 9.7975 16.2698 9.47548 16.4641L4.96699 19.1847C4.20311 19.6456 3.25596 18.9657 3.46363 18.1056L4.68942 13.0289C4.77698 12.6664 4.65182 12.2858 4.36526 12.0432L0.353062 8.64798C-0.326718 8.07271 0.0350679 6.97272 0.927291 6.90206L6.19336 6.48498C6.5695 6.45519 6.89716 6.22001 7.04207 5.87581L9.07088 1.05692Z" fill="#F9B811"/>
<path d="M33.0709 1.05692C33.4146 0.240465 34.5854 0.240466 34.9291 1.05693L36.9579 5.87581C37.1029 6.22001 37.4306 6.45519 37.8067 6.48498L43.0727 6.90206C43.9649 6.97272 44.3267 8.07271 43.6469 8.64798L39.6348 12.0432C39.3482 12.2858 39.223 12.6664 39.3106 13.0289L40.5363 18.1056C40.744 18.9657 39.7969 19.6456 39.033 19.1847L34.5245 16.4641C34.2025 16.2698 33.7975 16.2698 33.4755 16.4641L28.967 19.1847C28.2031 19.6456 27.256 18.9657 27.4636 18.1056L28.6894 13.0289C28.777 12.6664 28.6518 12.2858 28.3653 12.0432L24.3531 8.64798C23.6733 8.07271 24.0351 6.97272 24.9273 6.90206L30.1934 6.48498C30.5695 6.45519 30.8972 6.22001 31.0421 5.87581L33.0709 1.05692Z" fill="#F9B811"/>
<path d="M57.0709 1.05692C57.4146 0.240465 58.5854 0.240466 58.9291 1.05693L60.9579 5.87581C61.1029 6.22001 61.4306 6.45519 61.8067 6.48498L67.0727 6.90206C67.9649 6.97272 68.3267 8.07271 67.6469 8.64798L63.6348 12.0432C63.3482 12.2858 63.223 12.6664 63.3106 13.0289L64.5363 18.1056C64.744 18.9657 63.7969 19.6456 63.033 19.1847L58.5245 16.4641C58.2025 16.2698 57.7975 16.2698 57.4755 16.4641L52.967 19.1847C52.2031 19.6456 51.256 18.9657 51.4636 18.1056L52.6894 13.0289C52.777 12.6664 52.6518 12.2858 52.3653 12.0432L48.3531 8.64798C47.6733 8.07271 48.0351 6.97272 48.9273 6.90206L54.1934 6.48498C54.5695 6.45519 54.8972 6.22001 55.0421 5.87581L57.0709 1.05692Z" fill="#F9B811"/>
<path d="M81.0706 1.05692C81.4144 0.240465 82.5851 0.240466 82.9289 1.05693L84.9576 5.87581C85.1026 6.22001 85.4303 6.45519 85.8064 6.48498L91.0724 6.90206C91.9646 6.97272 92.3264 8.07271 91.6466 8.64798L87.6345 12.0432C87.348 12.2858 87.2228 12.6664 87.3103 13.0289L88.5361 18.1056C88.7438 18.9657 87.7966 19.6456 87.0328 19.1847L82.5243 16.4641C82.2023 16.2698 81.7973 16.2698 81.4752 16.4641L76.9667 19.1847C76.2029 19.6456 75.2557 18.9657 75.4634 18.1056L76.6892 13.0289C76.7767 12.6664 76.6516 12.2858 76.365 12.0432L72.3528 8.64798C71.673 8.07271 72.0348 6.97272 72.927 6.90206L78.1931 6.48498C78.5693 6.45519 78.8969 6.22001 79.0418 5.87581L81.0706 1.05692Z" fill="#F9B811"/>
<path d="M105.071 1.05692C105.414 0.240465 106.585 0.240466 106.929 1.05693L108.958 5.87581C109.103 6.22001 109.43 6.45519 109.806 6.48498L115.072 6.90206C115.965 6.97272 116.326 8.07271 115.647 8.64798L111.635 12.0432C111.348 12.2858 111.223 12.6664 111.31 13.0289L112.536 18.1056C112.744 18.9657 111.797 19.6456 111.033 19.1847L106.524 16.4641C106.202 16.2698 105.797 16.2698 105.475 16.4641L100.967 19.1847C100.203 19.6456 99.2557 18.9657 99.4634 18.1056L100.689 13.0289C100.777 12.6664 100.652 12.2858 100.365 12.0432L96.3528 8.64798C95.673 8.07271 96.0348 6.97272 96.927 6.90206L102.193 6.48498C102.569 6.45519 102.897 6.22001 103.042 5.87581L105.071 1.05692Z" fill="#B0B0B0"/>
</g>
<defs>
<clipPath id="clip0_379_1116">
<rect width="116" height="18.8889" fill="white" transform="translate(0 0.44458)"/>
</clipPath>
</defs>
</svg>
