<svg width="117" height="20" viewBox="0 0 117 20" fill="none" xmlns="http://www.w3.org/2000/svg">
<g clip-path="url(#clip0_379_1130)">
<path d="M9.73763 1.27909C10.0814 0.462633 11.2521 0.462634 11.5959 1.27909L13.6246 6.09798C13.7696 6.44218 14.0973 6.67736 14.4734 6.70715L19.7394 7.12423C20.6316 7.19489 20.9934 8.29488 20.3136 8.87015L16.3015 12.2654C16.015 12.508 15.8897 12.8885 15.9773 13.2511L17.2031 18.3277C17.4107 19.1879 16.4636 19.8678 15.6997 19.4069L11.1913 16.6863C10.8692 16.492 10.4642 16.492 10.1422 16.6863L5.63374 19.4069C4.86986 19.8678 3.9227 19.1879 4.13038 18.3277L5.35617 13.2511C5.44373 12.8885 5.31857 12.508 5.032 12.2654L1.01981 8.87015C0.34003 8.29488 0.701816 7.19489 1.59404 7.12423L6.8601 6.70715C7.23625 6.67736 7.5639 6.44218 7.70881 6.09798L9.73763 1.27909Z" fill="#F9B811"/>
<path d="M33.7376 1.27909C34.0814 0.462633 35.2521 0.462634 35.5959 1.27909L37.6246 6.09798C37.7696 6.44218 38.0973 6.67736 38.4734 6.70715L43.7394 7.12423C44.6316 7.19489 44.9934 8.29488 44.3136 8.87015L40.3015 12.2654C40.015 12.508 39.8897 12.8885 39.9773 13.2511L41.2031 18.3277C41.4107 19.1879 40.4636 19.8678 39.6997 19.4069L35.1913 16.6863C34.8692 16.492 34.4642 16.492 34.1422 16.6863L29.6337 19.4069C28.8699 19.8678 27.9227 19.1879 28.1304 18.3277L29.3562 13.2511C29.4437 12.8885 29.3186 12.508 29.032 12.2654L25.0198 8.87015C24.34 8.29488 24.7018 7.19489 25.594 7.12423L30.8601 6.70715C31.2362 6.67736 31.5639 6.44218 31.7088 6.09798L33.7376 1.27909Z" fill="#F9B811"/>
<path d="M57.7376 1.27909C58.0814 0.462633 59.2521 0.462634 59.5959 1.27909L61.6246 6.09798C61.7696 6.44218 62.0973 6.67736 62.4734 6.70715L67.7394 7.12423C68.6316 7.19489 68.9934 8.29488 68.3136 8.87015L64.3015 12.2654C64.015 12.508 63.8897 12.8885 63.9773 13.2511L65.2031 18.3277C65.4107 19.1879 64.4636 19.8678 63.6997 19.4069L59.1913 16.6863C58.8692 16.492 58.4642 16.492 58.1422 16.6863L53.6337 19.4069C52.8699 19.8678 51.9227 19.1879 52.1304 18.3277L53.3562 13.2511C53.4437 12.8885 53.3186 12.508 53.032 12.2654L49.0198 8.87015C48.34 8.29488 48.7018 7.19489 49.594 7.12423L54.8601 6.70715C55.2362 6.67736 55.5639 6.44218 55.7088 6.09798L57.7376 1.27909Z" fill="#F9B811"/>
<path d="M81.7374 1.27909C82.0811 0.462633 83.2519 0.462634 83.5956 1.27909L85.6244 6.09798C85.7694 6.44218 86.0971 6.67736 86.4732 6.70715L91.7392 7.12423C92.6314 7.19489 92.9932 8.29488 92.3134 8.87015L88.3013 12.2654C88.0147 12.508 87.8895 12.8885 87.9771 13.2511L89.2028 18.3277C89.4105 19.1879 88.4634 19.8678 87.6995 19.4069L83.191 16.6863C82.869 16.492 82.464 16.492 82.142 16.6863L77.6335 19.4069C76.8696 19.8678 75.9225 19.1879 76.1301 18.3277L77.3559 13.2511C77.4435 12.8885 77.3183 12.508 77.0318 12.2654L73.0196 8.87015C72.3398 8.29488 72.7016 7.19489 73.5938 7.12423L78.8599 6.70715C79.236 6.67736 79.5637 6.44218 79.7086 6.09798L81.7374 1.27909Z" fill="#F9B811"/>
<path d="M105.737 1.27909C106.081 0.462633 107.252 0.462634 107.596 1.27909L109.624 6.09798C109.769 6.44218 110.097 6.67736 110.473 6.70715L115.739 7.12423C116.631 7.19489 116.993 8.29488 116.313 8.87015L112.301 12.2654C112.015 12.508 111.89 12.8885 111.977 13.2511L113.203 18.3277C113.411 19.1879 112.463 19.8678 111.7 19.4069L107.191 16.6863C106.869 16.492 106.464 16.492 106.142 16.6863L101.633 19.4069C100.87 19.8678 99.9225 19.1879 100.13 18.3277L101.356 13.2511C101.443 12.8885 101.318 12.508 101.032 12.2654L97.0196 8.87015C96.3398 8.29488 96.7016 7.19489 97.5938 7.12423L102.86 6.70715C103.236 6.67736 103.564 6.44218 103.709 6.09798L105.737 1.27909Z" fill="#F9B811"/>
</g>
<defs>
<clipPath id="clip0_379_1130">
<rect width="116" height="18.8889" fill="white" transform="translate(0.666748 0.666748)"/>
</clipPath>
</defs>
</svg>
