<svg xmlns="http://www.w3.org/2000/svg" version="1.1" xmlns:xlink="http://www.w3.org/1999/xlink" width="1000" height="1000"><g clip-path="url(#SvgjsClipPath1029)"><rect width="1000" height="1000" fill="#1e0303"></rect><g transform="matrix(0.7,0,0,0.7,150,150)"><svg xmlns="http://www.w3.org/2000/svg" version="1.1" xmlns:xlink="http://www.w3.org/1999/xlink" width="1000" height="1000"><svg xmlns="http://www.w3.org/2000/svg" version="1.1" xmlns:xlink="http://www.w3.org/1999/xlink" width="1000" height="1000"><style>
    #light-icon {
      display: inline;
    }
    #dark-icon {
      display: none;
    }

    @media (prefers-color-scheme: dark) {
      #light-icon {
        display: none;
      }
      #dark-icon {
        display: inline;
      }
    }
  </style><g id="light-icon"><svg xmlns="http://www.w3.org/2000/svg" version="1.1" xmlns:xlink="http://www.w3.org/1999/xlink" width="1000" height="1000"><g clip-path="url(#SvgjsClipPath1016)"><rect width="1000" height="1000" fill="#160303"></rect><g transform="matrix(7.777777777777778,0,0,7.777777777777778,150,352.22222222222223)"><svg xmlns="http://www.w3.org/2000/svg" version="1.1" xmlns:xlink="http://www.w3.org/1999/xlink" width="90" height="38"><svg width="90" height="38" viewBox="0 0 90 38" fill="none" xmlns="http://www.w3.org/2000/svg">
<g clip-path="url(#clip0_127_1937)">
<path d="M90.0001 8.1721V11.9172H78.7638V23.3164H75.0455V11.9172H70.8801V11.8681L72.0464 8.1721H75.0455V5.2292L78.7638 4.05859V8.1721H90.0001Z" fill="white"></path>
<path d="M10.1513 14.5406C11.3415 14.1105 12.3707 13.3204 13.0981 12.2786C13.8256 11.2367 14.2156 9.99398 14.215 8.72032V8.33557C14.2156 7.51734 14.0559 6.70702 13.7453 5.95096C13.4347 5.19491 12.9791 4.50795 12.4047 3.92937C11.8302 3.35079 11.1482 2.89194 10.3975 2.57906C9.64688 2.26618 8.84236 2.10542 8.02998 2.10596H0V23.3161H3.73866V14.9172H6.04281L10.9193 23.3161H15.2147L10.1513 14.5406ZM3.73866 5.34765H7.63986C8.38794 5.3759 9.09603 5.69509 9.61536 6.23814C10.1347 6.7812 10.4248 7.50585 10.4248 8.25985C10.4248 9.01385 10.1347 9.73851 9.61536 10.2816C9.09603 10.8246 8.38794 11.1438 7.63986 11.1721H3.73866V5.34765Z" fill="white"></path>
<path d="M31.7907 17.0211C31.8563 16.5945 31.8889 16.1635 31.8883 15.7318C31.8901 15.2237 31.8439 14.7166 31.7501 14.2174C31.0836 10.5336 28.0318 7.74219 24.3662 7.74219C20.209 7.74219 16.8442 11.3195 16.8442 15.7318C16.8442 20.1441 20.209 23.7214 24.3662 23.7214C25.8202 23.7029 27.2374 23.2594 28.4458 22.4449C29.6542 21.6303 30.6016 20.4798 31.173 19.1331L27.3978 18.2572C27.0776 18.7782 26.6334 19.2105 26.1055 19.5149C25.5775 19.8194 24.9826 19.9864 24.3744 20.0009C22.7123 20.0009 21.3022 18.7729 20.7739 17.0211H31.7907ZM20.7129 14.2174C21.1884 12.3714 22.6473 11.0289 24.3703 11.0289C26.0933 11.0289 27.5563 12.3714 28.0277 14.2174H20.7129Z" fill="white"></path>
<path d="M42.0436 12.2649L44.9776 10.5172C44.5337 9.83899 43.9622 9.25496 43.2952 8.79813C42.6909 8.39204 42.0213 8.09432 41.3162 7.91813C40.3659 7.65189 39.3717 7.58364 38.3944 7.71757C37.7918 7.79955 37.2036 7.96626 36.6469 8.21283C36.2111 8.41528 35.8017 8.67097 35.4278 8.97414C34.9905 9.31226 34.6185 9.72848 34.3306 10.2021C34.1445 10.5195 33.9985 10.8592 33.8958 11.213C33.7341 11.7705 33.6789 12.3539 33.7332 12.9321C33.776 13.4864 33.9427 14.0237 34.2209 14.5038C34.3612 14.7292 34.5246 14.9391 34.7085 15.1301C35.2121 15.6612 35.8033 16.1002 36.4559 16.4276C37.0784 16.7512 37.7394 16.9933 38.4228 17.1479C38.8292 17.2503 39.2559 17.3567 39.6744 17.4549C39.9803 17.5217 40.2795 17.6162 40.5685 17.7373C40.8015 17.8168 41.0159 17.9436 41.1983 18.1098C41.3816 18.298 41.4998 18.5405 41.5356 18.8015C41.5686 19.0665 41.5113 19.3349 41.3731 19.5628C41.2834 19.7111 41.1645 19.8393 41.0236 19.9394C40.8009 20.1062 40.5463 20.2246 40.2759 20.2873C39.8037 20.4256 39.3077 20.4605 38.8211 20.3896C38.3044 20.3121 37.8115 20.1191 37.3784 19.8248C37.0526 19.6023 36.7667 19.3254 36.5332 19.0062L33.4163 20.3487C33.4798 20.4886 33.5503 20.6252 33.6276 20.758C33.8387 21.1153 34.0926 21.4452 34.3834 21.7403C34.8989 22.2393 35.5008 22.6388 36.1593 22.9191C36.6646 23.1503 37.1933 23.326 37.736 23.4431C38.3801 23.5952 39.0421 23.6559 39.7029 23.6231C40.475 23.5928 41.2346 23.4165 41.942 23.1033C42.7229 22.7518 43.4169 22.2304 43.9739 21.5766C44.1925 21.3281 44.3795 21.0531 44.5306 20.758C44.7952 20.2079 44.934 19.6051 44.937 18.9939C44.9769 18.5401 44.9223 18.083 44.7767 17.6516C44.6312 17.2203 44.3979 16.8243 44.0917 16.489C43.6198 15.9433 43.0523 15.4896 42.4175 15.1505C41.8388 14.8236 41.2323 14.5497 40.605 14.3319C40.605 14.3319 39.8898 14.0577 39.2437 13.8817L38.9633 13.808L38.4919 13.6893C38.3375 13.6443 38.2562 13.6157 38.2156 13.5993C38.1379 13.5741 38.0619 13.5441 37.988 13.5092C37.864 13.4578 37.7443 13.3962 37.6304 13.325C37.5207 13.2591 37.4242 13.173 37.3459 13.0713C37.2502 12.9331 37.1915 12.7724 37.1752 12.6047C37.1716 12.5392 37.1716 12.4736 37.1752 12.4082C37.1766 12.3314 37.1833 12.2548 37.1956 12.179C37.2089 12.103 37.2265 12.0278 37.2484 11.9539C37.2706 11.8878 37.2977 11.8234 37.3297 11.7615C37.3578 11.7105 37.389 11.6613 37.4231 11.6142C37.4504 11.5766 37.4803 11.541 37.5125 11.5077C37.5125 11.5077 37.5369 11.4791 37.541 11.4791C37.5746 11.4407 37.6113 11.4051 37.6507 11.3727C37.7115 11.3218 37.7768 11.2766 37.8458 11.2376C37.9189 11.1926 37.9799 11.1639 38.0124 11.1475L38.1465 11.078L38.309 11.0166L38.4066 10.9879L38.565 10.9511C38.7317 10.9142 38.9105 10.8938 38.9186 10.8897C39.1075 10.8695 39.2975 10.8613 39.4875 10.8651C39.8447 10.8693 40.1983 10.9372 40.5319 11.0657C40.73 11.1446 40.9205 11.2419 41.1008 11.3563C41.2065 11.4218 41.2796 11.475 41.2959 11.4873C41.4785 11.6137 41.6438 11.7637 41.7876 11.9334C41.8476 12.0007 41.9033 12.0718 41.9542 12.1462L42.0436 12.2649Z" fill="white"></path>
<path d="M61.1189 8.15985V23.3041H57.4087V21.8961C56.9236 22.4655 56.322 22.9223 55.6451 23.2353C54.9682 23.5483 54.232 23.71 53.4872 23.7093H53.3409C52.5523 23.7104 51.7713 23.555 51.0424 23.2519C50.3135 22.9488 49.651 22.5041 49.0929 21.943C48.5347 21.382 48.0918 20.7156 47.7894 19.9821C47.487 19.2486 47.3311 18.4622 47.3306 17.668V8.21306C47.3306 8.19787 47.3366 8.18329 47.3472 8.17254C47.3579 8.1618 47.3724 8.15576 47.3875 8.15576H51.0448V16.7266C51.0459 17.5661 51.3778 18.3708 51.9675 18.9641C52.5573 19.5573 53.3567 19.8905 54.1902 19.8905H54.3934C55.1942 19.8905 55.9621 19.5701 56.5284 18.9998C57.0946 18.4295 57.4127 17.6559 57.4127 16.8494V8.15985H61.1189Z" fill="white"></path>
<path d="M68.3198 0.518066H64.6218V23.3163H68.3198V0.518066Z" fill="white"></path>
<path d="M86.2574 23.3165C88.3244 23.3165 90.0001 21.6947 90.0001 19.6941C90.0001 17.6936 88.3244 16.0718 86.2574 16.0718C84.1903 16.0718 82.5146 17.6936 82.5146 19.6941C82.5146 21.6947 84.1903 23.3165 86.2574 23.3165Z" fill="#F8B806"></path>
<path d="M1.78404 33.0702C1.78404 33.2299 1.78404 33.455 1.80842 33.7169C1.80842 33.7456 1.84499 34.1262 1.88969 34.3677C1.98059 34.8407 2.19844 35.2795 2.51958 35.6366C2.97728 36.0788 3.58805 36.324 4.22229 36.3201C4.73805 36.2794 5.23057 36.087 5.63874 35.7668C6.04691 35.4467 6.35275 35.0128 6.51831 34.5192C6.51593 34.9898 6.41011 35.4541 6.20846 35.8787C6.00681 36.3033 5.71433 36.6777 5.35202 36.975C4.95363 37.2627 4.48676 37.4392 3.99878 37.4866C3.21811 37.5582 2.43956 37.3285 1.82061 36.844C1.43489 36.5185 1.13245 36.1044 0.938777 35.6366C0.808592 35.3507 0.714394 35.0496 0.658377 34.7402C0.53578 34.1919 0.519222 33.6249 0.60961 33.0702C0.716255 32.3717 1.01147 31.7161 1.463 31.1751C1.7231 30.8557 2.04355 30.5913 2.40579 30.3975C3.06253 30.068 3.81324 29.9811 4.52707 30.1519C4.81424 30.1991 5.08998 30.3005 5.33982 30.4507C5.73545 30.7143 6.04615 31.0884 6.23385 31.5271C6.36077 31.8026 6.44833 32.0947 6.49393 32.3949C6.53013 32.6222 6.5451 32.8524 6.53863 33.0825L1.78404 33.0702ZM4.16134 32.62C4.31965 32.6198 4.47708 32.5964 4.62866 32.5504C4.7983 32.5173 4.9557 32.438 5.08381 32.3212C5.16955 32.2248 5.23356 32.1109 5.27144 31.9873C5.30932 31.8636 5.32017 31.7332 5.30325 31.6049C5.27324 31.348 5.15372 31.1101 4.96596 30.9337C4.73341 30.7357 4.45274 30.6037 4.15278 30.5512C3.85282 30.4987 3.5444 30.5276 3.25918 30.6349C2.77207 30.8296 2.37587 31.2024 2.14977 31.6786C1.98956 31.967 1.88607 32.2839 1.84499 32.6118L4.16134 32.62Z" fill="#F8B806"></path>
<path d="M32.2621 33.07C32.2621 33.2296 32.2621 33.4547 32.2864 33.7167C32.2864 33.7453 32.323 34.126 32.3677 34.3675C32.46 34.8375 32.6778 35.2734 32.9976 35.6281C33.4553 36.0703 34.0661 36.3155 34.7003 36.3117C35.2161 36.2709 35.7086 36.0785 36.1168 35.7584C36.5249 35.4382 36.8308 35.0044 36.9963 34.5107C36.994 34.9814 36.8881 35.4457 36.6865 35.8703C36.4848 36.2949 36.1924 36.6693 35.83 36.9665C35.4317 37.2543 34.9648 37.4308 34.4768 37.4782C33.6961 37.5498 32.9176 37.3201 32.2986 36.8356C31.916 36.517 31.6138 36.1116 31.4168 35.6527C31.2866 35.3668 31.1924 35.0657 31.1364 34.7563C31.0138 34.208 30.9973 33.641 31.0876 33.0863C31.1943 32.3878 31.4895 31.7322 31.941 31.1913C32.2011 30.8718 32.5216 30.6074 32.8838 30.4136C33.5406 30.0841 34.2913 29.9972 35.0051 30.168C35.2923 30.2152 35.568 30.3166 35.8179 30.4668C36.2135 30.7304 36.5242 31.1045 36.7119 31.5433C36.8388 31.8187 36.9264 32.1108 36.972 32.411C37.0082 32.6383 37.0231 32.8685 37.0167 33.0986L32.2621 33.07ZM34.6394 32.6197C34.7977 32.6196 34.9551 32.5961 35.1067 32.5502C35.2763 32.517 35.4337 32.4377 35.5618 32.3209C35.6476 32.2246 35.7116 32.1107 35.7495 31.987C35.7873 31.8634 35.7982 31.7329 35.7813 31.6047C35.7513 31.3477 35.6317 31.1099 35.444 30.9334C35.2114 30.7355 34.9308 30.6035 34.6308 30.551C34.3308 30.4985 34.0224 30.5273 33.7372 30.6346C33.2501 30.8294 32.8539 31.2021 32.6278 31.6783C32.4676 31.9668 32.3641 32.2836 32.323 32.6115L34.6394 32.6197Z" fill="#F8B806"></path>
<path d="M8.13161 34.4085C8.22042 34.6876 8.32628 34.961 8.44858 35.2271C8.81838 36.017 9.05408 36.5327 9.59456 36.8233C9.98962 37.0307 10.4461 37.0859 10.8787 36.9789C11.0906 36.9204 11.2838 36.8075 11.4395 36.6514C11.5348 36.5513 11.6094 36.433 11.6589 36.3035C11.7147 36.1589 11.7396 36.0041 11.7321 35.8492C11.7352 35.6282 11.6791 35.4104 11.5695 35.2189C11.4746 35.0741 11.3516 34.9502 11.2079 34.8546C10.9975 34.6999 10.7697 34.5707 10.5292 34.4698C10.1228 34.2734 9.87902 34.1711 9.69615 34.0605C9.39186 33.9389 9.10051 33.7867 8.82651 33.6062C8.5843 33.4274 8.38444 33.1968 8.24133 32.9309C8.12003 32.6716 8.05713 32.3886 8.05713 32.102C8.05713 31.8154 8.12003 31.5324 8.24133 31.2732C8.64771 30.3727 9.69209 30.0453 10.4317 30.0739C10.926 30.0921 11.4051 30.2511 11.8134 30.5323L12.492 30.0698V32.7876L11.5492 30.9703C11.2413 30.7298 10.8692 30.5873 10.4805 30.561C10.185 30.5316 9.88732 30.5885 9.623 30.7247C9.46145 30.8 9.3216 30.9155 9.21663 31.0603C9.15049 31.1509 9.09969 31.2519 9.06627 31.3591C9.03092 31.4925 9.02127 31.6314 9.03783 31.7684C9.04795 31.8975 9.08834 32.0224 9.15567 32.1327C9.2106 32.2125 9.27782 32.283 9.3548 32.3415C9.47151 32.4404 9.59818 32.5269 9.73273 32.5993C10.1391 32.8122 10.3748 32.9227 10.8096 33.1191C11.0813 33.2402 11.3459 33.3768 11.6021 33.5285C11.9917 33.7122 12.3276 33.9942 12.5774 34.3471C12.775 34.6729 12.8725 35.0502 12.8578 35.4317C12.8537 35.7928 12.7571 36.1467 12.5774 36.4591C11.9272 37.5519 10.4073 37.5233 10.2651 37.5192C10.0219 37.5049 9.7808 37.4651 9.5458 37.4005C9.31867 37.3496 9.10342 37.2551 8.91185 37.1221C8.84916 37.0786 8.79066 37.0293 8.73711 36.9748L8.11129 37.5192L8.13161 34.4085Z" fill="#F8B806"></path>
<path d="M23.0781 32.2312C23.0781 31.916 23.0781 31.7605 23.0497 31.6499C23.0424 31.311 22.9072 30.9876 22.6718 30.7454C22.4871 30.6081 22.2632 30.5349 22.0337 30.5366C21.7112 30.494 21.3845 30.5759 21.1194 30.7659C20.9789 30.8719 20.8683 31.013 20.7984 31.1752C20.6033 31.6131 20.8471 31.8792 20.6317 32.2557C20.5585 32.3932 20.441 32.5014 20.2985 32.5627C20.192 32.6023 20.0769 32.6121 19.9653 32.5912C19.8537 32.5704 19.7498 32.5195 19.6646 32.444C19.5671 32.3348 19.5005 32.2012 19.4719 32.0571C19.4433 31.9131 19.4537 31.764 19.502 31.6254C19.555 31.4287 19.6604 31.2504 19.8068 31.1097C20.3018 30.6001 20.9401 30.2558 21.6355 30.1232C22.0419 30.07 23.0741 29.9268 23.769 30.6594C24.1234 31.0553 24.3164 31.5713 24.3094 32.1043L24.3298 36.4552L25.6952 35.9313C25.3038 36.4041 24.8743 36.8435 24.411 37.2451C24.2986 37.3525 24.1569 37.4235 24.0041 37.449C23.8513 37.4745 23.6944 37.4534 23.5536 37.3884C23.3835 37.2714 23.25 37.108 23.1687 36.9174C23.0873 36.7268 23.0616 36.5168 23.0944 36.3119C22.9887 36.3815 22.8221 36.492 22.623 36.6312C22.2994 36.899 21.9462 37.1284 21.5705 37.3147C21.3218 37.4226 21.0527 37.4743 20.7821 37.4662C20.5032 37.4624 20.2302 37.3848 19.9905 37.2411C19.7508 37.0974 19.5529 36.8927 19.4167 36.6476C19.198 36.2379 19.1359 35.7618 19.2419 35.3091C19.2908 35.0473 19.3917 34.7981 19.5386 34.5765C19.7706 34.2568 20.076 33.9985 20.4286 33.8234C20.6926 33.6846 20.9639 33.5602 21.2413 33.4509C21.5745 33.3076 21.729 33.2503 22.0988 33.103C22.3345 33.0088 22.6799 32.8656 23.0944 32.6937C23.0822 32.575 23.0822 32.4194 23.0781 32.2312ZM23.0781 33.1316C22.5823 33.3199 22.176 33.5 21.859 33.6433C21.4974 33.7773 21.1679 33.9865 20.8918 34.2572C20.7218 34.4363 20.5915 34.6497 20.5098 34.8835C20.4575 35.0544 20.4328 35.2326 20.4367 35.4115C20.4196 35.6575 20.4732 35.9033 20.5911 36.1196C20.6839 36.288 20.8257 36.4237 20.9975 36.5084C21.108 36.5512 21.2246 36.576 21.3429 36.5821C21.4779 36.5979 21.6143 36.5979 21.7493 36.5821C22.2379 36.4431 22.6875 36.1908 23.0619 35.8453L23.0781 33.1316Z" fill="#F8B806"></path>
<path d="M16.2022 28.5146V30.3156H17.7993V30.8436H16.2022V35.7307C16.174 35.8682 16.1854 36.0111 16.2351 36.1423C16.2847 36.2736 16.3706 36.3878 16.4826 36.4715C16.6272 36.5439 16.7913 36.5669 16.95 36.537C17.0723 36.5201 17.1907 36.4813 17.2995 36.4224C17.4705 36.3298 17.6301 36.2172 17.7749 36.0868L17.9618 35.9312C17.8887 36.0581 17.783 36.2341 17.6408 36.4347C17.5155 36.625 17.3712 36.802 17.21 36.9627C17.0328 37.1405 16.8212 37.2798 16.5883 37.372C16.507 37.4061 16.4226 37.4322 16.3363 37.4498C16.0571 37.5037 15.768 37.4528 15.5236 37.3065C15.3766 37.1971 15.2541 37.0579 15.1638 36.8979C15.0735 36.7378 15.0175 36.5605 14.9994 36.3774C14.9828 36.2759 14.9747 36.1732 14.975 36.0704V30.8354H13.7559L16.2022 28.5146Z" fill="#F8B806"></path>
<path d="M28.2513 28.5146V30.3156H29.8484V30.8436H28.2513V35.7307C28.223 35.8682 28.2344 36.0111 28.2841 36.1423C28.3338 36.2736 28.4197 36.3878 28.5317 36.4715C28.6763 36.5439 28.8403 36.5669 28.999 36.537C29.1214 36.5201 29.2397 36.4813 29.3485 36.4224C29.5188 36.3306 29.6772 36.2179 29.8199 36.0868L30.0109 35.9312C29.9378 36.0581 29.8321 36.2341 29.6899 36.4347C29.5646 36.625 29.4202 36.802 29.2591 36.9627C29.0818 37.1405 28.8702 37.2798 28.6374 37.372C28.5559 37.4056 28.4715 37.4316 28.3854 37.4498C28.1062 37.5037 27.817 37.4528 27.5726 37.3065C27.4257 37.1971 27.3031 37.0579 27.2128 36.8979C27.1226 36.7378 27.0665 36.5605 27.0484 36.3774C27.0319 36.2759 27.0237 36.1732 27.024 36.0704V30.8354H25.7927L28.2513 28.5146Z" fill="#F8B806"></path>
</g>
<defs>
<clipPath id="clip0_127_1937">
<rect width="90" height="36.9643" fill="white" transform="translate(0 0.518066)"></rect>
</clipPath>
<clipPath id="SvgjsClipPath1016"><rect width="1000" height="1000" x="0" y="0" rx="350" ry="350"></rect></clipPath><clipPath id="SvgjsClipPath1029"><rect width="1000" height="1000" x="0" y="0" rx="350" ry="350"></rect></clipPath></defs>
</svg></svg></g></g></svg></g><g id="dark-icon"><svg xmlns="http://www.w3.org/2000/svg" version="1.1" xmlns:xlink="http://www.w3.org/1999/xlink" width="1000" height="1000"><g clip-path="url(#SvgjsClipPath1017)"><rect width="1000" height="1000" fill="#100303"></rect><g transform="matrix(7.777777777777778,0,0,7.777777777777778,150,352.22222222222223)"><svg xmlns="http://www.w3.org/2000/svg" version="1.1" xmlns:xlink="http://www.w3.org/1999/xlink" width="90" height="38"><svg width="90" height="38" viewBox="0 0 90 38" fill="none" xmlns="http://www.w3.org/2000/svg">
<g clip-path="url(#clip0_127_1937)">
<path d="M90.0001 8.1721V11.9172H78.7638V23.3164H75.0455V11.9172H70.8801V11.8681L72.0464 8.1721H75.0455V5.2292L78.7638 4.05859V8.1721H90.0001Z" fill="white"></path>
<path d="M10.1513 14.5406C11.3415 14.1105 12.3707 13.3204 13.0981 12.2786C13.8256 11.2367 14.2156 9.99398 14.215 8.72032V8.33557C14.2156 7.51734 14.0559 6.70702 13.7453 5.95096C13.4347 5.19491 12.9791 4.50795 12.4047 3.92937C11.8302 3.35079 11.1482 2.89194 10.3975 2.57906C9.64688 2.26618 8.84236 2.10542 8.02998 2.10596H0V23.3161H3.73866V14.9172H6.04281L10.9193 23.3161H15.2147L10.1513 14.5406ZM3.73866 5.34765H7.63986C8.38794 5.3759 9.09603 5.69509 9.61536 6.23814C10.1347 6.7812 10.4248 7.50585 10.4248 8.25985C10.4248 9.01385 10.1347 9.73851 9.61536 10.2816C9.09603 10.8246 8.38794 11.1438 7.63986 11.1721H3.73866V5.34765Z" fill="white"></path>
<path d="M31.7907 17.0211C31.8563 16.5945 31.8889 16.1635 31.8883 15.7318C31.8901 15.2237 31.8439 14.7166 31.7501 14.2174C31.0836 10.5336 28.0318 7.74219 24.3662 7.74219C20.209 7.74219 16.8442 11.3195 16.8442 15.7318C16.8442 20.1441 20.209 23.7214 24.3662 23.7214C25.8202 23.7029 27.2374 23.2594 28.4458 22.4449C29.6542 21.6303 30.6016 20.4798 31.173 19.1331L27.3978 18.2572C27.0776 18.7782 26.6334 19.2105 26.1055 19.5149C25.5775 19.8194 24.9826 19.9864 24.3744 20.0009C22.7123 20.0009 21.3022 18.7729 20.7739 17.0211H31.7907ZM20.7129 14.2174C21.1884 12.3714 22.6473 11.0289 24.3703 11.0289C26.0933 11.0289 27.5563 12.3714 28.0277 14.2174H20.7129Z" fill="white"></path>
<path d="M42.0436 12.2649L44.9776 10.5172C44.5337 9.83899 43.9622 9.25496 43.2952 8.79813C42.6909 8.39204 42.0213 8.09432 41.3162 7.91813C40.3659 7.65189 39.3717 7.58364 38.3944 7.71757C37.7918 7.79955 37.2036 7.96626 36.6469 8.21283C36.2111 8.41528 35.8017 8.67097 35.4278 8.97414C34.9905 9.31226 34.6185 9.72848 34.3306 10.2021C34.1445 10.5195 33.9985 10.8592 33.8958 11.213C33.7341 11.7705 33.6789 12.3539 33.7332 12.9321C33.776 13.4864 33.9427 14.0237 34.2209 14.5038C34.3612 14.7292 34.5246 14.9391 34.7085 15.1301C35.2121 15.6612 35.8033 16.1002 36.4559 16.4276C37.0784 16.7512 37.7394 16.9933 38.4228 17.1479C38.8292 17.2503 39.2559 17.3567 39.6744 17.4549C39.9803 17.5217 40.2795 17.6162 40.5685 17.7373C40.8015 17.8168 41.0159 17.9436 41.1983 18.1098C41.3816 18.298 41.4998 18.5405 41.5356 18.8015C41.5686 19.0665 41.5113 19.3349 41.3731 19.5628C41.2834 19.7111 41.1645 19.8393 41.0236 19.9394C40.8009 20.1062 40.5463 20.2246 40.2759 20.2873C39.8037 20.4256 39.3077 20.4605 38.8211 20.3896C38.3044 20.3121 37.8115 20.1191 37.3784 19.8248C37.0526 19.6023 36.7667 19.3254 36.5332 19.0062L33.4163 20.3487C33.4798 20.4886 33.5503 20.6252 33.6276 20.758C33.8387 21.1153 34.0926 21.4452 34.3834 21.7403C34.8989 22.2393 35.5008 22.6388 36.1593 22.9191C36.6646 23.1503 37.1933 23.326 37.736 23.4431C38.3801 23.5952 39.0421 23.6559 39.7029 23.6231C40.475 23.5928 41.2346 23.4165 41.942 23.1033C42.7229 22.7518 43.4169 22.2304 43.9739 21.5766C44.1925 21.3281 44.3795 21.0531 44.5306 20.758C44.7952 20.2079 44.934 19.6051 44.937 18.9939C44.9769 18.5401 44.9223 18.083 44.7767 17.6516C44.6312 17.2203 44.3979 16.8243 44.0917 16.489C43.6198 15.9433 43.0523 15.4896 42.4175 15.1505C41.8388 14.8236 41.2323 14.5497 40.605 14.3319C40.605 14.3319 39.8898 14.0577 39.2437 13.8817L38.9633 13.808L38.4919 13.6893C38.3375 13.6443 38.2562 13.6157 38.2156 13.5993C38.1379 13.5741 38.0619 13.5441 37.988 13.5092C37.864 13.4578 37.7443 13.3962 37.6304 13.325C37.5207 13.2591 37.4242 13.173 37.3459 13.0713C37.2502 12.9331 37.1915 12.7724 37.1752 12.6047C37.1716 12.5392 37.1716 12.4736 37.1752 12.4082C37.1766 12.3314 37.1833 12.2548 37.1956 12.179C37.2089 12.103 37.2265 12.0278 37.2484 11.9539C37.2706 11.8878 37.2977 11.8234 37.3297 11.7615C37.3578 11.7105 37.389 11.6613 37.4231 11.6142C37.4504 11.5766 37.4803 11.541 37.5125 11.5077C37.5125 11.5077 37.5369 11.4791 37.541 11.4791C37.5746 11.4407 37.6113 11.4051 37.6507 11.3727C37.7115 11.3218 37.7768 11.2766 37.8458 11.2376C37.9189 11.1926 37.9799 11.1639 38.0124 11.1475L38.1465 11.078L38.309 11.0166L38.4066 10.9879L38.565 10.9511C38.7317 10.9142 38.9105 10.8938 38.9186 10.8897C39.1075 10.8695 39.2975 10.8613 39.4875 10.8651C39.8447 10.8693 40.1983 10.9372 40.5319 11.0657C40.73 11.1446 40.9205 11.2419 41.1008 11.3563C41.2065 11.4218 41.2796 11.475 41.2959 11.4873C41.4785 11.6137 41.6438 11.7637 41.7876 11.9334C41.8476 12.0007 41.9033 12.0718 41.9542 12.1462L42.0436 12.2649Z" fill="white"></path>
<path d="M61.1189 8.15985V23.3041H57.4087V21.8961C56.9236 22.4655 56.322 22.9223 55.6451 23.2353C54.9682 23.5483 54.232 23.71 53.4872 23.7093H53.3409C52.5523 23.7104 51.7713 23.555 51.0424 23.2519C50.3135 22.9488 49.651 22.5041 49.0929 21.943C48.5347 21.382 48.0918 20.7156 47.7894 19.9821C47.487 19.2486 47.3311 18.4622 47.3306 17.668V8.21306C47.3306 8.19787 47.3366 8.18329 47.3472 8.17254C47.3579 8.1618 47.3724 8.15576 47.3875 8.15576H51.0448V16.7266C51.0459 17.5661 51.3778 18.3708 51.9675 18.9641C52.5573 19.5573 53.3567 19.8905 54.1902 19.8905H54.3934C55.1942 19.8905 55.9621 19.5701 56.5284 18.9998C57.0946 18.4295 57.4127 17.6559 57.4127 16.8494V8.15985H61.1189Z" fill="white"></path>
<path d="M68.3198 0.518066H64.6218V23.3163H68.3198V0.518066Z" fill="white"></path>
<path d="M86.2574 23.3165C88.3244 23.3165 90.0001 21.6947 90.0001 19.6941C90.0001 17.6936 88.3244 16.0718 86.2574 16.0718C84.1903 16.0718 82.5146 17.6936 82.5146 19.6941C82.5146 21.6947 84.1903 23.3165 86.2574 23.3165Z" fill="#F8B806"></path>
<path d="M1.78404 33.0702C1.78404 33.2299 1.78404 33.455 1.80842 33.7169C1.80842 33.7456 1.84499 34.1262 1.88969 34.3677C1.98059 34.8407 2.19844 35.2795 2.51958 35.6366C2.97728 36.0788 3.58805 36.324 4.22229 36.3201C4.73805 36.2794 5.23057 36.087 5.63874 35.7668C6.04691 35.4467 6.35275 35.0128 6.51831 34.5192C6.51593 34.9898 6.41011 35.4541 6.20846 35.8787C6.00681 36.3033 5.71433 36.6777 5.35202 36.975C4.95363 37.2627 4.48676 37.4392 3.99878 37.4866C3.21811 37.5582 2.43956 37.3285 1.82061 36.844C1.43489 36.5185 1.13245 36.1044 0.938777 35.6366C0.808592 35.3507 0.714394 35.0496 0.658377 34.7402C0.53578 34.1919 0.519222 33.6249 0.60961 33.0702C0.716255 32.3717 1.01147 31.7161 1.463 31.1751C1.7231 30.8557 2.04355 30.5913 2.40579 30.3975C3.06253 30.068 3.81324 29.9811 4.52707 30.1519C4.81424 30.1991 5.08998 30.3005 5.33982 30.4507C5.73545 30.7143 6.04615 31.0884 6.23385 31.5271C6.36077 31.8026 6.44833 32.0947 6.49393 32.3949C6.53013 32.6222 6.5451 32.8524 6.53863 33.0825L1.78404 33.0702ZM4.16134 32.62C4.31965 32.6198 4.47708 32.5964 4.62866 32.5504C4.7983 32.5173 4.9557 32.438 5.08381 32.3212C5.16955 32.2248 5.23356 32.1109 5.27144 31.9873C5.30932 31.8636 5.32017 31.7332 5.30325 31.6049C5.27324 31.348 5.15372 31.1101 4.96596 30.9337C4.73341 30.7357 4.45274 30.6037 4.15278 30.5512C3.85282 30.4987 3.5444 30.5276 3.25918 30.6349C2.77207 30.8296 2.37587 31.2024 2.14977 31.6786C1.98956 31.967 1.88607 32.2839 1.84499 32.6118L4.16134 32.62Z" fill="#F8B806"></path>
<path d="M32.2621 33.07C32.2621 33.2296 32.2621 33.4547 32.2864 33.7167C32.2864 33.7453 32.323 34.126 32.3677 34.3675C32.46 34.8375 32.6778 35.2734 32.9976 35.6281C33.4553 36.0703 34.0661 36.3155 34.7003 36.3117C35.2161 36.2709 35.7086 36.0785 36.1168 35.7584C36.5249 35.4382 36.8308 35.0044 36.9963 34.5107C36.994 34.9814 36.8881 35.4457 36.6865 35.8703C36.4848 36.2949 36.1924 36.6693 35.83 36.9665C35.4317 37.2543 34.9648 37.4308 34.4768 37.4782C33.6961 37.5498 32.9176 37.3201 32.2986 36.8356C31.916 36.517 31.6138 36.1116 31.4168 35.6527C31.2866 35.3668 31.1924 35.0657 31.1364 34.7563C31.0138 34.208 30.9973 33.641 31.0876 33.0863C31.1943 32.3878 31.4895 31.7322 31.941 31.1913C32.2011 30.8718 32.5216 30.6074 32.8838 30.4136C33.5406 30.0841 34.2913 29.9972 35.0051 30.168C35.2923 30.2152 35.568 30.3166 35.8179 30.4668C36.2135 30.7304 36.5242 31.1045 36.7119 31.5433C36.8388 31.8187 36.9264 32.1108 36.972 32.411C37.0082 32.6383 37.0231 32.8685 37.0167 33.0986L32.2621 33.07ZM34.6394 32.6197C34.7977 32.6196 34.9551 32.5961 35.1067 32.5502C35.2763 32.517 35.4337 32.4377 35.5618 32.3209C35.6476 32.2246 35.7116 32.1107 35.7495 31.987C35.7873 31.8634 35.7982 31.7329 35.7813 31.6047C35.7513 31.3477 35.6317 31.1099 35.444 30.9334C35.2114 30.7355 34.9308 30.6035 34.6308 30.551C34.3308 30.4985 34.0224 30.5273 33.7372 30.6346C33.2501 30.8294 32.8539 31.2021 32.6278 31.6783C32.4676 31.9668 32.3641 32.2836 32.323 32.6115L34.6394 32.6197Z" fill="#F8B806"></path>
<path d="M8.13161 34.4085C8.22042 34.6876 8.32628 34.961 8.44858 35.2271C8.81838 36.017 9.05408 36.5327 9.59456 36.8233C9.98962 37.0307 10.4461 37.0859 10.8787 36.9789C11.0906 36.9204 11.2838 36.8075 11.4395 36.6514C11.5348 36.5513 11.6094 36.433 11.6589 36.3035C11.7147 36.1589 11.7396 36.0041 11.7321 35.8492C11.7352 35.6282 11.6791 35.4104 11.5695 35.2189C11.4746 35.0741 11.3516 34.9502 11.2079 34.8546C10.9975 34.6999 10.7697 34.5707 10.5292 34.4698C10.1228 34.2734 9.87902 34.1711 9.69615 34.0605C9.39186 33.9389 9.10051 33.7867 8.82651 33.6062C8.5843 33.4274 8.38444 33.1968 8.24133 32.9309C8.12003 32.6716 8.05713 32.3886 8.05713 32.102C8.05713 31.8154 8.12003 31.5324 8.24133 31.2732C8.64771 30.3727 9.69209 30.0453 10.4317 30.0739C10.926 30.0921 11.4051 30.2511 11.8134 30.5323L12.492 30.0698V32.7876L11.5492 30.9703C11.2413 30.7298 10.8692 30.5873 10.4805 30.561C10.185 30.5316 9.88732 30.5885 9.623 30.7247C9.46145 30.8 9.3216 30.9155 9.21663 31.0603C9.15049 31.1509 9.09969 31.2519 9.06627 31.3591C9.03092 31.4925 9.02127 31.6314 9.03783 31.7684C9.04795 31.8975 9.08834 32.0224 9.15567 32.1327C9.2106 32.2125 9.27782 32.283 9.3548 32.3415C9.47151 32.4404 9.59818 32.5269 9.73273 32.5993C10.1391 32.8122 10.3748 32.9227 10.8096 33.1191C11.0813 33.2402 11.3459 33.3768 11.6021 33.5285C11.9917 33.7122 12.3276 33.9942 12.5774 34.3471C12.775 34.6729 12.8725 35.0502 12.8578 35.4317C12.8537 35.7928 12.7571 36.1467 12.5774 36.4591C11.9272 37.5519 10.4073 37.5233 10.2651 37.5192C10.0219 37.5049 9.7808 37.4651 9.5458 37.4005C9.31867 37.3496 9.10342 37.2551 8.91185 37.1221C8.84916 37.0786 8.79066 37.0293 8.73711 36.9748L8.11129 37.5192L8.13161 34.4085Z" fill="#F8B806"></path>
<path d="M23.0781 32.2312C23.0781 31.916 23.0781 31.7605 23.0497 31.6499C23.0424 31.311 22.9072 30.9876 22.6718 30.7454C22.4871 30.6081 22.2632 30.5349 22.0337 30.5366C21.7112 30.494 21.3845 30.5759 21.1194 30.7659C20.9789 30.8719 20.8683 31.013 20.7984 31.1752C20.6033 31.6131 20.8471 31.8792 20.6317 32.2557C20.5585 32.3932 20.441 32.5014 20.2985 32.5627C20.192 32.6023 20.0769 32.6121 19.9653 32.5912C19.8537 32.5704 19.7498 32.5195 19.6646 32.444C19.5671 32.3348 19.5005 32.2012 19.4719 32.0571C19.4433 31.9131 19.4537 31.764 19.502 31.6254C19.555 31.4287 19.6604 31.2504 19.8068 31.1097C20.3018 30.6001 20.9401 30.2558 21.6355 30.1232C22.0419 30.07 23.0741 29.9268 23.769 30.6594C24.1234 31.0553 24.3164 31.5713 24.3094 32.1043L24.3298 36.4552L25.6952 35.9313C25.3038 36.4041 24.8743 36.8435 24.411 37.2451C24.2986 37.3525 24.1569 37.4235 24.0041 37.449C23.8513 37.4745 23.6944 37.4534 23.5536 37.3884C23.3835 37.2714 23.25 37.108 23.1687 36.9174C23.0873 36.7268 23.0616 36.5168 23.0944 36.3119C22.9887 36.3815 22.8221 36.492 22.623 36.6312C22.2994 36.899 21.9462 37.1284 21.5705 37.3147C21.3218 37.4226 21.0527 37.4743 20.7821 37.4662C20.5032 37.4624 20.2302 37.3848 19.9905 37.2411C19.7508 37.0974 19.5529 36.8927 19.4167 36.6476C19.198 36.2379 19.1359 35.7618 19.2419 35.3091C19.2908 35.0473 19.3917 34.7981 19.5386 34.5765C19.7706 34.2568 20.076 33.9985 20.4286 33.8234C20.6926 33.6846 20.9639 33.5602 21.2413 33.4509C21.5745 33.3076 21.729 33.2503 22.0988 33.103C22.3345 33.0088 22.6799 32.8656 23.0944 32.6937C23.0822 32.575 23.0822 32.4194 23.0781 32.2312ZM23.0781 33.1316C22.5823 33.3199 22.176 33.5 21.859 33.6433C21.4974 33.7773 21.1679 33.9865 20.8918 34.2572C20.7218 34.4363 20.5915 34.6497 20.5098 34.8835C20.4575 35.0544 20.4328 35.2326 20.4367 35.4115C20.4196 35.6575 20.4732 35.9033 20.5911 36.1196C20.6839 36.288 20.8257 36.4237 20.9975 36.5084C21.108 36.5512 21.2246 36.576 21.3429 36.5821C21.4779 36.5979 21.6143 36.5979 21.7493 36.5821C22.2379 36.4431 22.6875 36.1908 23.0619 35.8453L23.0781 33.1316Z" fill="#F8B806"></path>
<path d="M16.2022 28.5146V30.3156H17.7993V30.8436H16.2022V35.7307C16.174 35.8682 16.1854 36.0111 16.2351 36.1423C16.2847 36.2736 16.3706 36.3878 16.4826 36.4715C16.6272 36.5439 16.7913 36.5669 16.95 36.537C17.0723 36.5201 17.1907 36.4813 17.2995 36.4224C17.4705 36.3298 17.6301 36.2172 17.7749 36.0868L17.9618 35.9312C17.8887 36.0581 17.783 36.2341 17.6408 36.4347C17.5155 36.625 17.3712 36.802 17.21 36.9627C17.0328 37.1405 16.8212 37.2798 16.5883 37.372C16.507 37.4061 16.4226 37.4322 16.3363 37.4498C16.0571 37.5037 15.768 37.4528 15.5236 37.3065C15.3766 37.1971 15.2541 37.0579 15.1638 36.8979C15.0735 36.7378 15.0175 36.5605 14.9994 36.3774C14.9828 36.2759 14.9747 36.1732 14.975 36.0704V30.8354H13.7559L16.2022 28.5146Z" fill="#F8B806"></path>
<path d="M28.2513 28.5146V30.3156H29.8484V30.8436H28.2513V35.7307C28.223 35.8682 28.2344 36.0111 28.2841 36.1423C28.3338 36.2736 28.4197 36.3878 28.5317 36.4715C28.6763 36.5439 28.8403 36.5669 28.999 36.537C29.1214 36.5201 29.2397 36.4813 29.3485 36.4224C29.5188 36.3306 29.6772 36.2179 29.8199 36.0868L30.0109 35.9312C29.9378 36.0581 29.8321 36.2341 29.6899 36.4347C29.5646 36.625 29.4202 36.802 29.2591 36.9627C29.0818 37.1405 28.8702 37.2798 28.6374 37.372C28.5559 37.4056 28.4715 37.4316 28.3854 37.4498C28.1062 37.5037 27.817 37.4528 27.5726 37.3065C27.4257 37.1971 27.3031 37.0579 27.2128 36.8979C27.1226 36.7378 27.0665 36.5605 27.0484 36.3774C27.0319 36.2759 27.0237 36.1732 27.024 36.0704V30.8354H25.7927L28.2513 28.5146Z" fill="#F8B806"></path>
</g>
<defs>
<clipPath id="clip0_127_1937">
<rect width="90" height="36.9643" fill="white" transform="translate(0 0.518066)"></rect>
</clipPath>
<clipPath id="SvgjsClipPath1017"><rect width="1000" height="1000" x="0" y="0" rx="350" ry="350"></rect></clipPath></defs>
</svg></svg></g></g></svg></g></svg></svg></g></g></svg>